<svg width="30" height="24" viewBox="0 0 30 24" fill="none" xmlns="http://www.w3.org/2000/svg">
<path d="M27.5 0.75H2.5C1.1375 0.8 0.05 1.8875 0 3.25V20.75C0.05 22.1125 1.1375 23.2 2.5 23.25H27.5C28.8625 23.2 29.95 22.1125 30 20.75V3.25C29.95 1.8875 28.8625 0.8 27.5 0.75ZM27.5 20.75H2.5V3.25H27.5V20.75ZM17.5 18.25V16.6875C17.5 14.6125 13.325 13.5625 11.25 13.5625C9.175 13.5625 5 14.6125 5 16.6875V18.25H17.5ZM11.25 5.75C10.4212 5.75 9.62634 6.07924 9.04029 6.66529C8.45424 7.25134 8.125 8.0462 8.125 8.875C8.125 9.28538 8.20583 9.69174 8.36288 10.0709C8.51992 10.45 8.75011 10.7945 9.04029 11.0847C9.62634 11.6708 10.4212 12 11.25 12C11.6604 12 12.0667 11.9192 12.4459 11.7621C12.825 11.6051 13.1695 11.3749 13.4597 11.0847C13.7499 10.7945 13.9801 10.45 14.1371 10.0709C14.2942 9.69174 14.375 9.28538 14.375 8.875C14.375 8.46462 14.2942 8.05826 14.1371 7.67911C13.9801 7.29997 13.7499 6.95547 13.4597 6.66529C13.1695 6.37511 12.825 6.14492 12.4459 5.98788C12.0667 5.83083 11.6604 5.75 11.25 5.75ZM17.5 5.75V7H25V5.75H17.5ZM17.5 8.25V9.5H25V8.25H17.5ZM17.5 10.75V12H22.5V10.75H17.5Z" fill="#38B44E"/>
</svg>
