<svg width="28" height="21" viewBox="0 0 28 21" fill="none" xmlns="http://www.w3.org/2000/svg">
<path d="M5.25 0.5H27.75V15.5H5.25V0.5ZM16.5 4.25C17.4946 4.25 18.4484 4.64509 19.1517 5.34835C19.8549 6.05161 20.25 7.00544 20.25 8C20.25 8.99456 19.8549 9.94839 19.1517 10.6517C18.4484 11.3549 17.4946 11.75 16.5 11.75C15.5054 11.75 14.5516 11.3549 13.8483 10.6517C13.1451 9.94839 12.75 8.99456 12.75 8C12.75 7.00544 13.1451 6.05161 13.8483 5.34835C14.5516 4.64509 15.5054 4.25 16.5 4.25V4.25ZM10.25 3C10.25 3.66304 9.98661 4.29893 9.51777 4.76777C9.04893 5.23661 8.41304 5.5 7.75 5.5V10.5C8.41304 10.5 9.04893 10.7634 9.51777 11.2322C9.98661 11.7011 10.25 12.337 10.25 13H22.75C22.75 12.337 23.0134 11.7011 23.4822 11.2322C23.9511 10.7634 24.587 10.5 25.25 10.5V5.5C24.587 5.5 23.9511 5.23661 23.4822 4.76777C23.0134 4.29893 22.75 3.66304 22.75 3H10.25ZM0.25 5.5H2.75V18H22.75V20.5H0.25V5.5Z" fill="#38B44E"/>
</svg>
