<svg width="25" height="25" viewBox="0 0 25 25" fill="none" xmlns="http://www.w3.org/2000/svg">
<circle cx="12.5" cy="12.5" r="12.5" fill="white"/>
<path d="M5 12C4.44772 12 4 12.4477 4 13C4 13.5523 4.44772 14 5 14V12ZM19.7071 13.7071C20.0976 13.3166 20.0976 12.6834 19.7071 12.2929L13.3431 5.92893C12.9526 5.53841 12.3195 5.53841 11.9289 5.92893C11.5384 6.31946 11.5384 6.95262 11.9289 7.34315L17.5858 13L11.9289 18.6569C11.5384 19.0474 11.5384 19.6805 11.9289 20.0711C12.3195 20.4616 12.9526 20.4616 13.3431 20.0711L19.7071 13.7071ZM5 14L19 14V12L5 12V14Z" fill="#333333"/>
</svg>
