<svg width="40" height="41" viewBox="0 0 40 41" fill="none" xmlns="http://www.w3.org/2000/svg">
<path d="M13.379 31.823C13.379 31.9832 13.1935 32.1113 12.9597 32.1113C12.6935 32.1353 12.5081 32.0072 12.5081 31.823C12.5081 31.6629 12.6935 31.5348 12.9274 31.5348C13.1694 31.5107 13.379 31.6389 13.379 31.823ZM10.871 31.4627C10.8145 31.6228 10.9758 31.807 11.2177 31.8551C11.4274 31.9352 11.6694 31.8551 11.7177 31.6949C11.7661 31.5348 11.6129 31.3506 11.371 31.2785C11.1613 31.2225 10.9274 31.3025 10.871 31.4627ZM14.4355 31.3266C14.2016 31.3826 14.0403 31.5348 14.0645 31.7189C14.0887 31.8791 14.2984 31.9832 14.5403 31.9271C14.7742 31.8711 14.9355 31.7189 14.9113 31.5588C14.8871 31.4066 14.6694 31.3025 14.4355 31.3266ZM19.7419 0.640625C8.55645 0.640625 0 9.07285 0 20.1797C0 29.0603 5.62903 36.6598 13.6694 39.3344C14.7016 39.5186 15.0645 38.8859 15.0645 38.3654C15.0645 37.8689 15.0403 35.1303 15.0403 33.4486C15.0403 33.4486 9.39516 34.6498 8.20968 31.0623C8.20968 31.0623 7.29032 28.732 5.96774 28.1314C5.96774 28.1314 4.12097 26.8742 6.09677 26.8982C6.09677 26.8982 8.10484 27.0584 9.20968 28.9643C10.9758 32.0553 13.9355 31.1664 15.0887 30.6379C15.2742 29.3566 15.7984 28.4678 16.379 27.9393C11.871 27.4428 7.32258 26.7941 7.32258 19.0906C7.32258 16.8885 7.93548 15.7834 9.22581 14.374C9.01613 13.8535 8.33064 11.7074 9.43548 8.93672C11.121 8.41621 15 11.0988 15 11.0988C16.6129 10.6504 18.3468 10.4182 20.0645 10.4182C21.7823 10.4182 23.5161 10.6504 25.129 11.0988C25.129 11.0988 29.0081 8.4082 30.6935 8.93672C31.7984 11.7154 31.1129 13.8535 30.9032 14.374C32.1935 15.7914 32.9839 16.8965 32.9839 19.0906C32.9839 26.8182 28.2339 27.4348 23.7258 27.9393C24.4677 28.5719 25.0968 29.773 25.0968 31.6549C25.0968 34.3535 25.0726 37.6928 25.0726 38.3494C25.0726 38.8699 25.4435 39.5025 26.4677 39.3184C34.5323 36.6598 40 29.0603 40 20.1797C40 9.07285 30.9274 0.640625 19.7419 0.640625ZM7.83871 28.2596C7.73387 28.3396 7.75806 28.5238 7.89516 28.676C8.02419 28.8041 8.20968 28.8602 8.31452 28.7561C8.41935 28.676 8.39516 28.4918 8.25806 28.3396C8.12903 28.2115 7.94355 28.1555 7.83871 28.2596ZM6.96774 27.6109C6.91129 27.715 6.99194 27.8432 7.15323 27.9232C7.28226 28.0033 7.44355 27.9793 7.5 27.8672C7.55645 27.7631 7.47581 27.635 7.31452 27.5549C7.15323 27.5068 7.02419 27.5309 6.96774 27.6109ZM9.58065 30.4617C9.45161 30.5658 9.5 30.8061 9.68548 30.9582C9.87097 31.1424 10.1048 31.1664 10.2097 31.0383C10.3145 30.9342 10.2661 30.6939 10.1048 30.5418C9.92742 30.3576 9.68548 30.3336 9.58065 30.4617ZM8.66129 29.2846C8.53226 29.3646 8.53226 29.5728 8.66129 29.757C8.79032 29.9412 9.00806 30.0213 9.1129 29.9412C9.24194 29.8371 9.24194 29.6289 9.1129 29.4447C9 29.2605 8.79032 29.1805 8.66129 29.2846Z" fill="white"/>
</svg>
