<svg width="50" height="59" viewBox="0 0 50 59" fill="none" xmlns="http://www.w3.org/2000/svg">
<path d="M9.09091 42.4634C9.09091 44.9628 11.1364 47.0079 13.6364 47.0079H15.1515V54.582C15.1515 56.6732 16.847 58.3691 18.9394 58.3691C21.0318 58.3691 22.7273 56.6732 22.7273 54.582V47.0079H27.2727V54.582C27.2727 56.6732 28.9682 58.3691 31.0606 58.3691C33.153 58.3691 34.8485 56.6732 34.8485 54.582V47.0079H36.3636C38.8636 47.0079 40.9091 44.9628 40.9091 42.4634V19.7409H9.09091V42.4634Z" fill="#444444"/>
<path d="M46.2121 18.9835C44.1197 18.9835 42.4242 20.6793 42.4242 22.7706V37.9189C42.4242 40.0101 44.1197 41.706 46.2121 41.706C48.3045 41.706 50 40.0101 50 37.9189V22.7706C50 20.6793 48.3045 18.9835 46.2121 18.9835Z" fill="#444444"/>
<path d="M3.78788 18.9835C1.69545 18.9835 0 20.6793 0 22.7706V37.9189C0 40.0101 1.69545 41.706 3.78788 41.706C5.8803 41.706 7.57576 40.0101 7.57576 37.9189V22.7706C7.57576 20.6793 5.8803 18.9835 3.78788 18.9835Z" fill="#444444"/>
<path d="M33.6106 4.86374L35.6553 1.12135C35.8561 0.754 35.7205 0.294248 35.3538 0.0935332C34.9871 -0.107182 34.5258 0.0276385 34.3258 0.394985L32.2992 4.10329C30.1114 2.9702 27.6341 2.32034 25 2.32034C22.3659 2.32034 19.8886 2.9702 17.7008 4.10329L15.6742 0.394985C15.4727 0.028396 15.0129 -0.108697 14.6462 0.0935332C14.2795 0.294248 14.1439 0.754 14.3447 1.12135L16.3894 4.86374C12.0023 7.69571 9.09091 12.6166 9.09091 18.2261H40.9091C40.9091 12.6166 37.9977 7.69571 33.6106 4.86374ZM18.1818 12.9242C17.3455 12.9242 16.6667 12.2455 16.6667 11.4093C16.6667 10.5731 17.3455 9.89449 18.1818 9.89449C19.0182 9.89449 19.697 10.5731 19.697 11.4093C19.697 12.2455 19.0182 12.9242 18.1818 12.9242ZM31.8182 12.9242C30.9818 12.9242 30.303 12.2455 30.303 11.4093C30.303 10.5731 30.9818 9.89449 31.8182 9.89449C32.6545 9.89449 33.3333 10.5731 33.3333 11.4093C33.3333 12.2455 32.6545 12.9242 31.8182 12.9242Z" fill="#444444"/>
</svg>
