<svg width="746" height="517" viewBox="0 0 746 517" fill="none" xmlns="http://www.w3.org/2000/svg">
<line y1="473.853" x2="878" y2="473.853" stroke="#C4C4C4" stroke-opacity="0.3"/>
<line y1="292.31" x2="878" y2="292.31" stroke="#DEDEDE" stroke-opacity="0.3" stroke-dasharray="2 2"/>
<line y1="201.539" x2="878" y2="201.539" stroke="#DEDEDE" stroke-opacity="0.3" stroke-dasharray="2 2"/>
<line y1="383.082" x2="878" y2="383.082" stroke="#DEDEDE" stroke-opacity="0.3" stroke-dasharray="2 2"/>
<path d="M68.3197 513.625V514.492C68.3197 514.958 68.2781 515.351 68.1947 515.672C68.1114 515.992 67.9916 516.25 67.8353 516.445C67.6791 516.64 67.4903 516.782 67.2689 516.871C67.0502 516.957 66.8028 517 66.5268 517C66.308 517 66.1062 516.972 65.9213 516.918C65.7364 516.863 65.5697 516.776 65.4213 516.656C65.2755 516.534 65.1505 516.375 65.0463 516.179C64.9421 515.984 64.8627 515.747 64.808 515.468C64.7533 515.19 64.726 514.864 64.726 514.492V513.625C64.726 513.159 64.7676 512.768 64.851 512.453C64.9369 512.138 65.058 511.885 65.2143 511.695C65.3705 511.502 65.558 511.364 65.7768 511.281C65.9981 511.198 66.2455 511.156 66.5189 511.156C66.7403 511.156 66.9434 511.183 67.1283 511.238C67.3158 511.29 67.4825 511.375 67.6283 511.492C67.7741 511.606 67.8978 511.76 67.9994 511.953C68.1036 512.143 68.183 512.376 68.2377 512.652C68.2924 512.928 68.3197 513.252 68.3197 513.625ZM67.5932 514.609V513.504C67.5932 513.248 67.5775 513.024 67.5463 512.832C67.5176 512.636 67.4747 512.47 67.4174 512.332C67.3601 512.194 67.2872 512.082 67.1986 511.996C67.1127 511.91 67.0124 511.847 66.8978 511.808C66.7859 511.767 66.6596 511.746 66.5189 511.746C66.3471 511.746 66.1947 511.778 66.0619 511.843C65.9291 511.906 65.8171 512.006 65.726 512.144C65.6374 512.282 65.5697 512.463 65.5228 512.687C65.476 512.911 65.4525 513.183 65.4525 513.504V514.609C65.4525 514.864 65.4669 515.09 65.4955 515.285C65.5268 515.48 65.5723 515.649 65.6322 515.793C65.6921 515.933 65.765 516.049 65.851 516.14C65.9369 516.231 66.0359 516.299 66.1478 516.343C66.2624 516.385 66.3887 516.406 66.5268 516.406C66.7038 516.406 66.8588 516.372 66.9916 516.304C67.1244 516.237 67.2351 516.131 67.3236 515.988C67.4148 515.842 67.4825 515.656 67.5268 515.429C67.571 515.2 67.5932 514.927 67.5932 514.609ZM71.6244 511.203V516.922H70.9018V512.105L69.4447 512.636V511.984L71.5111 511.203H71.6244Z" fill="white" fill-opacity="0.2"/>
<path d="M135.633 513.625V514.492C135.633 514.958 135.591 515.351 135.508 515.672C135.425 515.992 135.305 516.25 135.149 516.445C134.992 516.64 134.804 516.782 134.582 516.871C134.363 516.957 134.116 517 133.84 517C133.621 517 133.419 516.972 133.235 516.918C133.05 516.863 132.883 516.776 132.735 516.656C132.589 516.534 132.464 516.375 132.36 516.179C132.255 515.984 132.176 515.747 132.121 515.468C132.067 515.19 132.039 514.864 132.039 514.492V513.625C132.039 513.159 132.081 512.768 132.164 512.453C132.25 512.138 132.371 511.885 132.527 511.695C132.684 511.502 132.871 511.364 133.09 511.281C133.311 511.198 133.559 511.156 133.832 511.156C134.054 511.156 134.257 511.183 134.442 511.238C134.629 511.29 134.796 511.375 134.942 511.492C135.087 511.606 135.211 511.76 135.313 511.953C135.417 512.143 135.496 512.376 135.551 512.652C135.606 512.928 135.633 513.252 135.633 513.625ZM134.906 514.609V513.504C134.906 513.248 134.891 513.024 134.86 512.832C134.831 512.636 134.788 512.47 134.731 512.332C134.673 512.194 134.6 512.082 134.512 511.996C134.426 511.91 134.326 511.847 134.211 511.808C134.099 511.767 133.973 511.746 133.832 511.746C133.66 511.746 133.508 511.778 133.375 511.843C133.242 511.906 133.13 512.006 133.039 512.144C132.951 512.282 132.883 512.463 132.836 512.687C132.789 512.911 132.766 513.183 132.766 513.504V514.609C132.766 514.864 132.78 515.09 132.809 515.285C132.84 515.48 132.886 515.649 132.945 515.793C133.005 515.933 133.078 516.049 133.164 516.14C133.25 516.231 133.349 516.299 133.461 516.343C133.576 516.385 133.702 516.406 133.84 516.406C134.017 516.406 134.172 516.372 134.305 516.304C134.438 516.237 134.548 516.131 134.637 515.988C134.728 515.842 134.796 515.656 134.84 515.429C134.884 515.2 134.906 514.927 134.906 514.609ZM140.289 516.328V516.922H136.567V516.402L138.43 514.328C138.659 514.073 138.836 513.856 138.961 513.679C139.089 513.5 139.177 513.34 139.227 513.199C139.279 513.056 139.305 512.91 139.305 512.761C139.305 512.574 139.266 512.405 139.188 512.254C139.112 512.1 139 511.978 138.852 511.886C138.703 511.795 138.524 511.75 138.313 511.75C138.06 511.75 137.849 511.799 137.68 511.898C137.513 511.994 137.388 512.13 137.305 512.304C137.221 512.479 137.18 512.679 137.18 512.906H136.457C136.457 512.586 136.527 512.293 136.668 512.027C136.809 511.761 137.017 511.55 137.293 511.394C137.569 511.235 137.909 511.156 138.313 511.156C138.672 511.156 138.979 511.22 139.235 511.347C139.49 511.472 139.685 511.649 139.82 511.879C139.958 512.105 140.027 512.371 140.027 512.675C140.027 512.842 139.999 513.011 139.942 513.183C139.887 513.353 139.81 513.522 139.711 513.691C139.615 513.86 139.501 514.027 139.371 514.191C139.244 514.355 139.107 514.517 138.961 514.675L137.438 516.328H140.289Z" fill="white" fill-opacity="0.2"/>
<path d="M202.946 513.625V514.492C202.946 514.958 202.905 515.351 202.821 515.672C202.738 515.992 202.618 516.25 202.462 516.445C202.306 516.64 202.117 516.782 201.896 516.871C201.677 516.957 201.429 517 201.153 517C200.935 517 200.733 516.972 200.548 516.918C200.363 516.863 200.196 516.776 200.048 516.656C199.902 516.534 199.777 516.375 199.673 516.179C199.569 515.984 199.489 515.747 199.435 515.468C199.38 515.19 199.353 514.864 199.353 514.492V513.625C199.353 513.159 199.394 512.768 199.478 512.453C199.564 512.138 199.685 511.885 199.841 511.695C199.997 511.502 200.185 511.364 200.403 511.281C200.625 511.198 200.872 511.156 201.146 511.156C201.367 511.156 201.57 511.183 201.755 511.238C201.943 511.29 202.109 511.375 202.255 511.492C202.401 511.606 202.525 511.76 202.626 511.953C202.73 512.143 202.81 512.376 202.864 512.652C202.919 512.928 202.946 513.252 202.946 513.625ZM202.22 514.609V513.504C202.22 513.248 202.204 513.024 202.173 512.832C202.144 512.636 202.101 512.47 202.044 512.332C201.987 512.194 201.914 512.082 201.825 511.996C201.739 511.91 201.639 511.847 201.525 511.808C201.413 511.767 201.286 511.746 201.146 511.746C200.974 511.746 200.821 511.778 200.689 511.843C200.556 511.906 200.444 512.006 200.353 512.144C200.264 512.282 200.196 512.463 200.15 512.687C200.103 512.911 200.079 513.183 200.079 513.504V514.609C200.079 514.864 200.094 515.09 200.122 515.285C200.153 515.48 200.199 515.649 200.259 515.793C200.319 515.933 200.392 516.049 200.478 516.14C200.564 516.231 200.663 516.299 200.775 516.343C200.889 516.385 201.015 516.406 201.153 516.406C201.331 516.406 201.485 516.372 201.618 516.304C201.751 516.237 201.862 516.131 201.95 515.988C202.041 515.842 202.109 515.656 202.153 515.429C202.198 515.2 202.22 514.927 202.22 514.609ZM204.931 513.722H205.446C205.699 513.722 205.907 513.681 206.071 513.597C206.238 513.511 206.362 513.396 206.443 513.25C206.526 513.101 206.568 512.935 206.568 512.75C206.568 512.531 206.531 512.347 206.458 512.199C206.385 512.05 206.276 511.938 206.13 511.863C205.984 511.787 205.799 511.75 205.575 511.75C205.372 511.75 205.193 511.79 205.036 511.871C204.883 511.949 204.762 512.061 204.673 512.207C204.587 512.353 204.544 512.524 204.544 512.722H203.821C203.821 512.433 203.894 512.17 204.04 511.933C204.186 511.696 204.39 511.508 204.653 511.367C204.919 511.226 205.226 511.156 205.575 511.156C205.919 511.156 206.22 511.217 206.478 511.34C206.735 511.459 206.936 511.639 207.079 511.879C207.222 512.116 207.294 512.411 207.294 512.765C207.294 512.909 207.26 513.062 207.193 513.226C207.127 513.388 207.025 513.539 206.884 513.679C206.746 513.82 206.566 513.936 206.345 514.027C206.124 514.116 205.858 514.16 205.548 514.16H204.931V513.722ZM204.931 514.316V513.883H205.548C205.91 513.883 206.209 513.925 206.446 514.011C206.683 514.097 206.87 514.212 207.005 514.355C207.143 514.498 207.239 514.656 207.294 514.828C207.351 514.997 207.38 515.166 207.38 515.336C207.38 515.601 207.334 515.837 207.243 516.043C207.155 516.248 207.028 516.423 206.864 516.566C206.703 516.709 206.513 516.817 206.294 516.89C206.075 516.963 205.837 517 205.579 517C205.332 517 205.099 516.965 204.88 516.894C204.664 516.824 204.472 516.722 204.306 516.59C204.139 516.454 204.009 516.289 203.915 516.093C203.821 515.896 203.775 515.67 203.775 515.418H204.497C204.497 515.616 204.54 515.789 204.626 515.937C204.715 516.086 204.84 516.202 205.001 516.285C205.165 516.366 205.358 516.406 205.579 516.406C205.801 516.406 205.991 516.368 206.15 516.293C206.311 516.215 206.435 516.097 206.521 515.941C206.609 515.785 206.653 515.588 206.653 515.351C206.653 515.114 206.604 514.92 206.505 514.769C206.406 514.616 206.265 514.502 206.083 514.429C205.903 514.354 205.691 514.316 205.446 514.316H204.931Z" fill="white" fill-opacity="0.2"/>
<path d="M270.26 513.625V514.492C270.26 514.958 270.218 515.351 270.135 515.672C270.051 515.992 269.932 516.25 269.775 516.445C269.619 516.64 269.43 516.782 269.209 516.871C268.99 516.957 268.743 517 268.467 517C268.248 517 268.046 516.972 267.861 516.918C267.676 516.863 267.51 516.776 267.361 516.656C267.215 516.534 267.09 516.375 266.986 516.179C266.882 515.984 266.803 515.747 266.748 515.468C266.693 515.19 266.666 514.864 266.666 514.492V513.625C266.666 513.159 266.708 512.768 266.791 512.453C266.877 512.138 266.998 511.885 267.154 511.695C267.31 511.502 267.498 511.364 267.717 511.281C267.938 511.198 268.185 511.156 268.459 511.156C268.68 511.156 268.883 511.183 269.068 511.238C269.256 511.29 269.422 511.375 269.568 511.492C269.714 511.606 269.838 511.76 269.939 511.953C270.044 512.143 270.123 512.376 270.178 512.652C270.232 512.928 270.26 513.252 270.26 513.625ZM269.533 514.609V513.504C269.533 513.248 269.517 513.024 269.486 512.832C269.458 512.636 269.415 512.47 269.357 512.332C269.3 512.194 269.227 512.082 269.139 511.996C269.053 511.91 268.952 511.847 268.838 511.808C268.726 511.767 268.6 511.746 268.459 511.746C268.287 511.746 268.135 511.778 268.002 511.843C267.869 511.906 267.757 512.006 267.666 512.144C267.577 512.282 267.51 512.463 267.463 512.687C267.416 512.911 267.392 513.183 267.392 513.504V514.609C267.392 514.864 267.407 515.09 267.435 515.285C267.467 515.48 267.512 515.649 267.572 515.793C267.632 515.933 267.705 516.049 267.791 516.14C267.877 516.231 267.976 516.299 268.088 516.343C268.202 516.385 268.329 516.406 268.467 516.406C268.644 516.406 268.799 516.372 268.932 516.304C269.064 516.237 269.175 516.131 269.264 515.988C269.355 515.842 269.422 515.656 269.467 515.429C269.511 515.2 269.533 514.927 269.533 514.609ZM275.033 515.008V515.601H270.924V515.175L273.471 511.234H274.06L273.428 512.375L271.744 515.008H275.033ZM274.24 511.234V516.922H273.517V511.234H274.24Z" fill="white" fill-opacity="0.2"/>
<path d="M337.573 513.625V514.492C337.573 514.958 337.531 515.351 337.448 515.672C337.365 515.992 337.245 516.25 337.089 516.445C336.933 516.64 336.744 516.782 336.522 516.871C336.304 516.957 336.056 517 335.78 517C335.561 517 335.36 516.972 335.175 516.918C334.99 516.863 334.823 516.776 334.675 516.656C334.529 516.534 334.404 516.375 334.3 516.179C334.196 515.984 334.116 515.747 334.061 515.468C334.007 515.19 333.979 514.864 333.979 514.492V513.625C333.979 513.159 334.021 512.768 334.104 512.453C334.19 512.138 334.311 511.885 334.468 511.695C334.624 511.502 334.811 511.364 335.03 511.281C335.252 511.198 335.499 511.156 335.772 511.156C335.994 511.156 336.197 511.183 336.382 511.238C336.569 511.29 336.736 511.375 336.882 511.492C337.028 511.606 337.151 511.76 337.253 511.953C337.357 512.143 337.436 512.376 337.491 512.652C337.546 512.928 337.573 513.252 337.573 513.625ZM336.847 514.609V513.504C336.847 513.248 336.831 513.024 336.8 512.832C336.771 512.636 336.728 512.47 336.671 512.332C336.614 512.194 336.541 512.082 336.452 511.996C336.366 511.91 336.266 511.847 336.151 511.808C336.039 511.767 335.913 511.746 335.772 511.746C335.6 511.746 335.448 511.778 335.315 511.843C335.183 511.906 335.071 512.006 334.979 512.144C334.891 512.282 334.823 512.463 334.776 512.687C334.729 512.911 334.706 513.183 334.706 513.504V514.609C334.706 514.864 334.72 515.09 334.749 515.285C334.78 515.48 334.826 515.649 334.886 515.793C334.946 515.933 335.018 516.049 335.104 516.14C335.19 516.231 335.289 516.299 335.401 516.343C335.516 516.385 335.642 516.406 335.78 516.406C335.957 516.406 336.112 516.372 336.245 516.304C336.378 516.237 336.489 516.131 336.577 515.988C336.668 515.842 336.736 515.656 336.78 515.429C336.824 515.2 336.847 514.927 336.847 514.609ZM339.417 514.215L338.839 514.066L339.124 511.234H342.042V511.902H339.737L339.565 513.449C339.67 513.389 339.801 513.333 339.96 513.281C340.121 513.229 340.306 513.203 340.515 513.203C340.778 513.203 341.013 513.248 341.222 513.34C341.43 513.428 341.607 513.556 341.753 513.722C341.901 513.889 342.015 514.09 342.093 514.324C342.171 514.558 342.21 514.82 342.21 515.109C342.21 515.383 342.172 515.634 342.097 515.863C342.024 516.092 341.913 516.293 341.765 516.465C341.616 516.634 341.429 516.765 341.202 516.859C340.978 516.953 340.714 517 340.409 517C340.18 517 339.962 516.968 339.757 516.906C339.554 516.841 339.371 516.743 339.21 516.613C339.051 516.48 338.921 516.316 338.819 516.121C338.72 515.923 338.658 515.691 338.632 515.425H339.319C339.35 515.639 339.413 515.819 339.507 515.965C339.6 516.11 339.723 516.221 339.874 516.297C340.028 516.369 340.206 516.406 340.409 516.406C340.581 516.406 340.733 516.376 340.866 516.316C340.999 516.256 341.111 516.17 341.202 516.058C341.293 515.946 341.362 515.811 341.409 515.652C341.459 515.493 341.483 515.315 341.483 515.117C341.483 514.937 341.459 514.771 341.409 514.617C341.36 514.463 341.285 514.329 341.186 514.215C341.09 514.1 340.972 514.011 340.831 513.949C340.69 513.884 340.529 513.851 340.347 513.851C340.104 513.851 339.921 513.884 339.796 513.949C339.673 514.014 339.547 514.103 339.417 514.215Z" fill="white" fill-opacity="0.2"/>
<path d="M404.886 513.625V514.492C404.886 514.958 404.845 515.351 404.761 515.672C404.678 515.992 404.558 516.25 404.402 516.445C404.246 516.64 404.057 516.782 403.836 516.871C403.617 516.957 403.369 517 403.093 517C402.875 517 402.673 516.972 402.488 516.918C402.303 516.863 402.136 516.776 401.988 516.656C401.842 516.534 401.717 516.375 401.613 516.179C401.509 515.984 401.429 515.747 401.375 515.468C401.32 515.19 401.293 514.864 401.293 514.492V513.625C401.293 513.159 401.334 512.768 401.418 512.453C401.504 512.138 401.625 511.885 401.781 511.695C401.937 511.502 402.125 511.364 402.343 511.281C402.565 511.198 402.812 511.156 403.086 511.156C403.307 511.156 403.51 511.183 403.695 511.238C403.882 511.29 404.049 511.375 404.195 511.492C404.341 511.606 404.464 511.76 404.566 511.953C404.67 512.143 404.75 512.376 404.804 512.652C404.859 512.928 404.886 513.252 404.886 513.625ZM404.16 514.609V513.504C404.16 513.248 404.144 513.024 404.113 512.832C404.084 512.636 404.041 512.47 403.984 512.332C403.927 512.194 403.854 512.082 403.765 511.996C403.679 511.91 403.579 511.847 403.464 511.808C403.353 511.767 403.226 511.746 403.086 511.746C402.914 511.746 402.761 511.778 402.629 511.843C402.496 511.906 402.384 512.006 402.293 512.144C402.204 512.282 402.136 512.463 402.089 512.687C402.043 512.911 402.019 513.183 402.019 513.504V514.609C402.019 514.864 402.034 515.09 402.062 515.285C402.093 515.48 402.139 515.649 402.199 515.793C402.259 515.933 402.332 516.049 402.418 516.14C402.504 516.231 402.603 516.299 402.714 516.343C402.829 516.385 402.955 516.406 403.093 516.406C403.27 516.406 403.425 516.372 403.558 516.304C403.691 516.237 403.802 516.131 403.89 515.988C403.981 515.842 404.049 515.656 404.093 515.429C404.138 515.2 404.16 514.927 404.16 514.609ZM408.589 511.226H408.652V511.84H408.589C408.207 511.84 407.886 511.902 407.629 512.027C407.371 512.149 407.166 512.315 407.015 512.523C406.864 512.729 406.755 512.961 406.687 513.218C406.622 513.476 406.589 513.738 406.589 514.004V514.84C406.589 515.092 406.619 515.316 406.679 515.511C406.739 515.704 406.821 515.867 406.925 516C407.03 516.133 407.147 516.233 407.277 516.3C407.41 516.368 407.548 516.402 407.691 516.402C407.858 516.402 408.006 516.371 408.136 516.308C408.267 516.243 408.376 516.153 408.464 516.039C408.556 515.922 408.625 515.784 408.672 515.625C408.718 515.466 408.742 515.291 408.742 515.101C408.742 514.932 408.721 514.769 408.679 514.613C408.638 514.454 408.574 514.313 408.488 514.191C408.402 514.066 408.294 513.968 408.164 513.898C408.036 513.825 407.884 513.789 407.707 513.789C407.506 513.789 407.319 513.838 407.144 513.937C406.972 514.034 406.83 514.161 406.718 514.32C406.609 514.476 406.547 514.647 406.531 514.832L406.148 514.828C406.185 514.536 406.252 514.287 406.351 514.082C406.453 513.873 406.578 513.704 406.726 513.574C406.877 513.441 407.045 513.345 407.23 513.285C407.418 513.222 407.616 513.191 407.824 513.191C408.108 513.191 408.353 513.244 408.558 513.351C408.764 513.458 408.933 513.601 409.066 513.781C409.199 513.958 409.297 514.159 409.359 514.383C409.424 514.604 409.457 514.832 409.457 515.066C409.457 515.334 409.419 515.586 409.343 515.82C409.268 516.054 409.155 516.26 409.004 516.437C408.855 516.614 408.672 516.752 408.453 516.851C408.234 516.95 407.98 517 407.691 517C407.384 517 407.116 516.937 406.886 516.812C406.657 516.685 406.467 516.515 406.316 516.304C406.165 516.093 406.052 515.859 405.976 515.601C405.901 515.343 405.863 515.082 405.863 514.816V514.476C405.863 514.075 405.903 513.682 405.984 513.297C406.065 512.911 406.204 512.562 406.402 512.25C406.603 511.937 406.88 511.688 407.234 511.504C407.588 511.319 408.04 511.226 408.589 511.226Z" fill="white" fill-opacity="0.2"/>
<path d="M472.2 513.625V514.492C472.2 514.958 472.158 515.351 472.075 515.672C471.991 515.992 471.871 516.25 471.715 516.445C471.559 516.64 471.37 516.782 471.149 516.871C470.93 516.957 470.683 517 470.407 517C470.188 517 469.986 516.972 469.801 516.918C469.616 516.863 469.45 516.776 469.301 516.656C469.155 516.534 469.03 516.375 468.926 516.179C468.822 515.984 468.743 515.747 468.688 515.468C468.633 515.19 468.606 514.864 468.606 514.492V513.625C468.606 513.159 468.648 512.768 468.731 512.453C468.817 512.138 468.938 511.885 469.094 511.695C469.25 511.502 469.438 511.364 469.657 511.281C469.878 511.198 470.125 511.156 470.399 511.156C470.62 511.156 470.823 511.183 471.008 511.238C471.196 511.29 471.362 511.375 471.508 511.492C471.654 511.606 471.778 511.76 471.879 511.953C471.983 512.143 472.063 512.376 472.118 512.652C472.172 512.928 472.2 513.252 472.2 513.625ZM471.473 514.609V513.504C471.473 513.248 471.457 513.024 471.426 512.832C471.398 512.636 471.355 512.47 471.297 512.332C471.24 512.194 471.167 512.082 471.079 511.996C470.993 511.91 470.892 511.847 470.778 511.808C470.666 511.767 470.539 511.746 470.399 511.746C470.227 511.746 470.075 511.778 469.942 511.843C469.809 511.906 469.697 512.006 469.606 512.144C469.517 512.282 469.45 512.463 469.403 512.687C469.356 512.911 469.332 513.183 469.332 513.504V514.609C469.332 514.864 469.347 515.09 469.375 515.285C469.407 515.48 469.452 515.649 469.512 515.793C469.572 515.933 469.645 516.049 469.731 516.14C469.817 516.231 469.916 516.299 470.028 516.343C470.142 516.385 470.269 516.406 470.407 516.406C470.584 516.406 470.739 516.372 470.871 516.304C471.004 516.237 471.115 516.131 471.204 515.988C471.295 515.842 471.362 515.656 471.407 515.429C471.451 515.2 471.473 514.927 471.473 514.609ZM476.805 511.234V511.64L474.45 516.922H473.688L476.039 511.828H472.961V511.234H476.805Z" fill="white" fill-opacity="0.2"/>
<path d="M539.513 513.625V514.492C539.513 514.958 539.471 515.351 539.388 515.672C539.305 515.992 539.185 516.25 539.029 516.445C538.872 516.64 538.684 516.782 538.462 516.871C538.244 516.957 537.996 517 537.72 517C537.501 517 537.3 516.972 537.115 516.918C536.93 516.863 536.763 516.776 536.615 516.656C536.469 516.534 536.344 516.375 536.24 516.179C536.135 515.984 536.056 515.747 536.001 515.468C535.947 515.19 535.919 514.864 535.919 514.492V513.625C535.919 513.159 535.961 512.768 536.044 512.453C536.13 512.138 536.251 511.885 536.408 511.695C536.564 511.502 536.751 511.364 536.97 511.281C537.191 511.198 537.439 511.156 537.712 511.156C537.934 511.156 538.137 511.183 538.322 511.238C538.509 511.29 538.676 511.375 538.822 511.492C538.968 511.606 539.091 511.76 539.193 511.953C539.297 512.143 539.376 512.376 539.431 512.652C539.486 512.928 539.513 513.252 539.513 513.625ZM538.787 514.609V513.504C538.787 513.248 538.771 513.024 538.74 512.832C538.711 512.636 538.668 512.47 538.611 512.332C538.553 512.194 538.481 512.082 538.392 511.996C538.306 511.91 538.206 511.847 538.091 511.808C537.979 511.767 537.853 511.746 537.712 511.746C537.54 511.746 537.388 511.778 537.255 511.843C537.122 511.906 537.01 512.006 536.919 512.144C536.831 512.282 536.763 512.463 536.716 512.687C536.669 512.911 536.646 513.183 536.646 513.504V514.609C536.646 514.864 536.66 515.09 536.689 515.285C536.72 515.48 536.766 515.649 536.826 515.793C536.885 515.933 536.958 516.049 537.044 516.14C537.13 516.231 537.229 516.299 537.341 516.343C537.456 516.385 537.582 516.406 537.72 516.406C537.897 516.406 538.052 516.372 538.185 516.304C538.318 516.237 538.428 516.131 538.517 515.988C538.608 515.842 538.676 515.656 538.72 515.429C538.764 515.2 538.787 514.927 538.787 514.609ZM544.029 515.383C544.029 515.729 543.948 516.023 543.787 516.265C543.628 516.505 543.412 516.687 543.138 516.812C542.867 516.937 542.561 517 542.22 517C541.879 517 541.572 516.937 541.298 516.812C541.025 516.687 540.809 516.505 540.65 516.265C540.491 516.023 540.412 515.729 540.412 515.383C540.412 515.156 540.454 514.949 540.54 514.761C540.629 514.571 540.753 514.406 540.912 514.265C541.073 514.125 541.263 514.017 541.482 513.941C541.703 513.863 541.947 513.824 542.212 513.824C542.561 513.824 542.872 513.892 543.146 514.027C543.419 514.16 543.634 514.343 543.79 514.578C543.949 514.812 544.029 515.08 544.029 515.383ZM543.302 515.367C543.302 515.156 543.257 514.97 543.165 514.808C543.074 514.644 542.947 514.517 542.783 514.425C542.619 514.334 542.428 514.289 542.212 514.289C541.991 514.289 541.8 514.334 541.638 514.425C541.479 514.517 541.356 514.644 541.267 514.808C541.178 514.97 541.134 515.156 541.134 515.367C541.134 515.586 541.177 515.773 541.263 515.929C541.352 516.083 541.477 516.202 541.638 516.285C541.802 516.366 541.996 516.406 542.22 516.406C542.444 516.406 542.637 516.366 542.798 516.285C542.96 516.202 543.083 516.083 543.169 515.929C543.258 515.773 543.302 515.586 543.302 515.367ZM543.896 512.715C543.896 512.991 543.823 513.239 543.677 513.461C543.531 513.682 543.332 513.856 543.079 513.984C542.827 514.112 542.54 514.175 542.22 514.175C541.895 514.175 541.604 514.112 541.349 513.984C541.096 513.856 540.899 513.682 540.755 513.461C540.612 513.239 540.54 512.991 540.54 512.715C540.54 512.384 540.612 512.103 540.755 511.871C540.901 511.639 541.1 511.462 541.353 511.34C541.606 511.217 541.893 511.156 542.216 511.156C542.542 511.156 542.831 511.217 543.083 511.34C543.336 511.462 543.534 511.639 543.677 511.871C543.823 512.103 543.896 512.384 543.896 512.715ZM543.173 512.726C543.173 512.536 543.133 512.368 543.052 512.222C542.971 512.077 542.859 511.962 542.716 511.879C542.573 511.793 542.406 511.75 542.216 511.75C542.026 511.75 541.859 511.79 541.716 511.871C541.576 511.949 541.465 512.061 541.384 512.207C541.306 512.353 541.267 512.526 541.267 512.726C541.267 512.922 541.306 513.092 541.384 513.238C541.465 513.384 541.577 513.497 541.72 513.578C541.863 513.659 542.03 513.699 542.22 513.699C542.41 513.699 542.576 513.659 542.716 513.578C542.859 513.497 542.971 513.384 543.052 513.238C543.133 513.092 543.173 512.922 543.173 512.726Z" fill="white" fill-opacity="0.2"/>
<path d="M606.826 513.625V514.492C606.826 514.958 606.785 515.351 606.701 515.672C606.618 515.992 606.498 516.25 606.342 516.445C606.186 516.64 605.997 516.782 605.776 516.871C605.557 516.957 605.309 517 605.033 517C604.815 517 604.613 516.972 604.428 516.918C604.243 516.863 604.076 516.776 603.928 516.656C603.782 516.534 603.657 516.375 603.553 516.179C603.449 515.984 603.369 515.747 603.315 515.468C603.26 515.19 603.233 514.864 603.233 514.492V513.625C603.233 513.159 603.274 512.768 603.358 512.453C603.443 512.138 603.565 511.885 603.721 511.695C603.877 511.502 604.065 511.364 604.283 511.281C604.505 511.198 604.752 511.156 605.026 511.156C605.247 511.156 605.45 511.183 605.635 511.238C605.822 511.29 605.989 511.375 606.135 511.492C606.281 511.606 606.404 511.76 606.506 511.953C606.61 512.143 606.69 512.376 606.744 512.652C606.799 512.928 606.826 513.252 606.826 513.625ZM606.1 514.609V513.504C606.1 513.248 606.084 513.024 606.053 512.832C606.024 512.636 605.981 512.47 605.924 512.332C605.867 512.194 605.794 512.082 605.705 511.996C605.619 511.91 605.519 511.847 605.404 511.808C605.292 511.767 605.166 511.746 605.026 511.746C604.854 511.746 604.701 511.778 604.568 511.843C604.436 511.906 604.324 512.006 604.233 512.144C604.144 512.282 604.076 512.463 604.029 512.687C603.983 512.911 603.959 513.183 603.959 513.504V514.609C603.959 514.864 603.973 515.09 604.002 515.285C604.033 515.48 604.079 515.649 604.139 515.793C604.199 515.933 604.272 516.049 604.358 516.14C604.443 516.231 604.542 516.299 604.654 516.343C604.769 516.385 604.895 516.406 605.033 516.406C605.21 516.406 605.365 516.372 605.498 516.304C605.631 516.237 605.742 516.131 605.83 515.988C605.921 515.842 605.989 515.656 606.033 515.429C606.078 515.2 606.1 514.927 606.1 514.609ZM608.475 516.316H608.549C608.966 516.316 609.304 516.258 609.565 516.14C609.825 516.023 610.026 515.866 610.166 515.668C610.307 515.47 610.403 515.247 610.455 515C610.507 514.75 610.533 514.493 610.533 514.23V513.359C610.533 513.101 610.503 512.872 610.443 512.672C610.386 512.471 610.305 512.303 610.201 512.168C610.1 512.032 609.984 511.929 609.854 511.859C609.723 511.789 609.585 511.754 609.44 511.754C609.273 511.754 609.123 511.787 608.99 511.855C608.86 511.92 608.749 512.013 608.658 512.133C608.57 512.252 608.502 512.393 608.455 512.554C608.408 512.716 608.385 512.892 608.385 513.082C608.385 513.251 608.406 513.415 608.447 513.574C608.489 513.733 608.553 513.876 608.639 514.004C608.725 514.131 608.832 514.233 608.959 514.308C609.089 514.381 609.242 514.418 609.416 514.418C609.578 514.418 609.729 514.386 609.869 514.324C610.012 514.259 610.139 514.172 610.248 514.062C610.36 513.95 610.449 513.824 610.514 513.683C610.582 513.543 610.621 513.396 610.631 513.242H610.975C610.975 513.458 610.932 513.672 610.846 513.883C610.762 514.091 610.645 514.281 610.494 514.453C610.343 514.625 610.166 514.763 609.963 514.867C609.76 514.968 609.539 515.019 609.299 515.019C609.018 515.019 608.774 514.965 608.568 514.855C608.363 514.746 608.193 514.6 608.061 514.418C607.93 514.235 607.833 514.032 607.768 513.808C607.705 513.582 607.674 513.353 607.674 513.121C607.674 512.85 607.712 512.596 607.787 512.359C607.863 512.122 607.975 511.914 608.123 511.734C608.272 511.552 608.455 511.41 608.674 511.308C608.895 511.207 609.151 511.156 609.44 511.156C609.765 511.156 610.042 511.221 610.272 511.351C610.501 511.481 610.687 511.656 610.83 511.875C610.976 512.093 611.083 512.34 611.151 512.613C611.218 512.886 611.252 513.168 611.252 513.457V513.718C611.252 514.013 611.233 514.312 611.193 514.617C611.157 514.919 611.085 515.208 610.979 515.484C610.874 515.76 610.722 516.008 610.522 516.226C610.321 516.442 610.059 516.614 609.736 516.742C609.416 516.867 609.02 516.929 608.549 516.929H608.475V516.316Z" fill="white" fill-opacity="0.2"/>
<path d="M672.944 511.203V516.922H672.222V512.105L670.765 512.636V511.984L672.831 511.203H672.944ZM678.64 513.625V514.492C678.64 514.958 678.598 515.351 678.515 515.672C678.431 515.992 678.311 516.25 678.155 516.445C677.999 516.64 677.81 516.782 677.589 516.871C677.37 516.957 677.123 517 676.847 517C676.628 517 676.426 516.972 676.241 516.918C676.056 516.863 675.89 516.776 675.741 516.656C675.595 516.534 675.47 516.375 675.366 516.179C675.262 515.984 675.183 515.747 675.128 515.468C675.073 515.19 675.046 514.864 675.046 514.492V513.625C675.046 513.159 675.087 512.768 675.171 512.453C675.257 512.138 675.378 511.885 675.534 511.695C675.69 511.502 675.878 511.364 676.097 511.281C676.318 511.198 676.565 511.156 676.839 511.156C677.06 511.156 677.263 511.183 677.448 511.238C677.636 511.29 677.802 511.375 677.948 511.492C678.094 511.606 678.218 511.76 678.319 511.953C678.423 512.143 678.503 512.376 678.558 512.652C678.612 512.928 678.64 513.252 678.64 513.625ZM677.913 514.609V513.504C677.913 513.248 677.897 513.024 677.866 512.832C677.837 512.636 677.795 512.47 677.737 512.332C677.68 512.194 677.607 512.082 677.518 511.996C677.433 511.91 677.332 511.847 677.218 511.808C677.106 511.767 676.979 511.746 676.839 511.746C676.667 511.746 676.515 511.778 676.382 511.843C676.249 511.906 676.137 512.006 676.046 512.144C675.957 512.282 675.89 512.463 675.843 512.687C675.796 512.911 675.772 513.183 675.772 513.504V514.609C675.772 514.864 675.787 515.09 675.815 515.285C675.847 515.48 675.892 515.649 675.952 515.793C676.012 515.933 676.085 516.049 676.171 516.14C676.257 516.231 676.356 516.299 676.468 516.343C676.582 516.385 676.709 516.406 676.847 516.406C677.024 516.406 677.179 516.372 677.311 516.304C677.444 516.237 677.555 516.131 677.643 515.988C677.735 515.842 677.802 515.656 677.847 515.429C677.891 515.2 677.913 514.927 677.913 514.609Z" fill="white" fill-opacity="0.2"/>
<path d="M740.258 511.203V516.922H739.535V512.105L738.078 512.636V511.984L740.144 511.203H740.258ZM744.758 511.203V516.922H744.035V512.105L742.578 512.636V511.984L744.644 511.203H744.758Z" fill="white" fill-opacity="0.2"/>
<rect x="58.5334" y="319.163" width="20.4867" height="155.19" fill="white" fill-opacity="0.2"/>
<rect x="125.847" y="243.033" width="20.4867" height="231.32" fill="white" fill-opacity="0.2"/>
<rect x="193.16" y="289.882" width="20.4867" height="184.471" fill="white" fill-opacity="0.2"/>
<rect x="260.473" y="363.085" width="20.4867" height="111.268" fill="white" fill-opacity="0.2"/>
<rect x="327.787" y="342.588" width="20.4867" height="131.765" fill="white" fill-opacity="0.2"/>
<rect x="395.1" y="319.163" width="20.4867" height="155.19" fill="white" fill-opacity="0.2"/>
<rect x="462.414" y="281.098" width="20.4867" height="193.255" fill="white" fill-opacity="0.2"/>
<rect x="529.727" y="307.451" width="20.4866" height="166.902" fill="white" fill-opacity="0.2"/>
<rect x="597.04" y="342.588" width="20.4867" height="131.765" fill="white" fill-opacity="0.2"/>
<rect x="664.354" y="354.301" width="20.4867" height="120.052" fill="white" fill-opacity="0.2"/>
<rect x="731.667" y="319.163" width="20.4866" height="155.19" fill="white" fill-opacity="0.2"/>
</svg>
