<svg width="154" height="30" viewBox="0 0 154 30" fill="none" xmlns="http://www.w3.org/2000/svg">
<path fill-rule="evenodd" clip-rule="evenodd" d="M36.3779 17.9516C36.1703 18.3466 35.8847 18.6906 35.5217 18.9825C35.1587 19.2746 34.7347 19.5124 34.2503 19.6955C33.7663 19.879 33.2786 20.0022 32.7886 20.065C32.2987 20.128 31.8229 20.1225 31.3618 20.0478C30.9004 19.9735 30.508 19.8217 30.1854 19.5924L30.5489 15.8296C30.8831 15.7151 31.3036 15.5976 31.8114 15.4773C32.3188 15.3572 32.8404 15.2711 33.3767 15.2196C33.9129 15.168 34.4203 15.1741 34.8993 15.2369C35.3773 15.2998 35.755 15.4516 36.0318 15.6922C36.1817 15.8296 36.3087 15.9784 36.4127 16.1389C36.5163 16.2993 36.5795 16.4654 36.6029 16.6372C36.6602 17.1183 36.5855 17.5564 36.3779 17.9516ZM31.1021 9.93616C31.3444 9.78725 31.6354 9.65538 31.9755 9.54073C32.3156 9.42649 32.6649 9.34607 33.0224 9.30029C33.3794 9.25473 33.7282 9.24861 34.0688 9.28306C34.4089 9.31752 34.7091 9.41187 34.968 9.56646C35.2274 9.72122 35.4209 9.94466 35.5474 10.2365C35.6743 10.5289 35.7092 10.8983 35.6514 11.345C35.6051 11.7001 35.464 12.0009 35.2274 12.247C34.9914 12.4936 34.7026 12.6995 34.3626 12.8656C34.0225 13.032 33.6622 13.1636 33.2818 13.2606C32.9009 13.3583 32.5347 13.43 32.1832 13.4756C31.8316 13.5215 31.5259 13.5503 31.2665 13.5614C31.0071 13.573 30.8368 13.5786 30.7562 13.5786L31.1021 9.93616ZM38.2461 15.5203C38.0614 15.1196 37.8134 14.7673 37.5022 14.4635C37.191 14.16 36.8215 13.9396 36.3953 13.8021C36.5795 13.6532 36.7615 13.4184 36.9403 13.0976C37.1186 12.7771 37.2716 12.4275 37.3981 12.0495C37.5251 11.6713 37.6117 11.2907 37.658 10.9068C37.7039 10.5232 37.6864 10.1938 37.6062 9.91871C37.4096 9.23161 37.1016 8.6932 36.6804 8.30366C36.2596 7.91435 35.7697 7.64512 35.2105 7.49602C34.6509 7.34756 34.0339 7.31576 33.3597 7.40162C32.685 7.48752 31.9957 7.65645 31.2926 7.90845C31.2926 7.85134 31.2981 7.79116 31.31 7.72819C31.321 7.66541 31.327 7.59934 31.327 7.53048C31.327 7.35871 31.2404 7.21002 31.0676 7.08382C30.8947 6.95784 30.6957 6.8835 30.4709 6.86038C30.246 6.83771 30.0268 6.8861 29.8135 7.00641C29.6 7.12677 29.453 7.34756 29.3724 7.66779C29.28 8.69887 29.1879 9.77002 29.0957 10.8809C29.0033 11.9922 28.9054 13.1148 28.8016 14.249C28.6979 15.3829 28.594 16.5084 28.4903 17.6251C28.3865 18.742 28.2827 19.8159 28.1789 20.8467C28.2135 21.156 28.3 21.3967 28.4385 21.5684C28.5767 21.7404 28.7382 21.8435 28.9228 21.8777C29.1071 21.9122 29.3004 21.8804 29.5021 21.7832C29.7038 21.6861 29.8798 21.5168 30.0299 21.2763C30.4909 21.5283 31.0099 21.6916 31.5864 21.7662C32.163 21.8405 32.7483 21.8405 33.3423 21.7662C33.9359 21.6916 34.5211 21.5514 35.0977 21.345C35.6743 21.139 36.1991 20.8811 36.6721 20.572C37.1447 20.2627 37.5425 19.9102 37.8656 19.5152C38.1883 19.1198 38.4014 18.6932 38.5055 18.2353C38.6091 17.7655 38.6379 17.2959 38.5921 16.8262C38.5458 16.3566 38.4303 15.9216 38.2461 15.5203Z" fill="white"/>
<path fill-rule="evenodd" clip-rule="evenodd" d="M55.1203 24.5917C55.057 24.9697 54.9672 25.3677 54.8521 25.7861C54.7366 26.2039 54.6014 26.5851 54.4456 26.9287C54.2902 27.2724 54.117 27.5497 53.9272 27.7617C53.7365 27.9738 53.5317 28.0629 53.3126 28.0286C53.1398 28.0053 53.0302 27.8965 52.9844 27.7019C52.9381 27.5068 52.9381 27.2664 52.9844 26.9804C53.0302 26.6939 53.1196 26.37 53.2521 26.0093C53.3845 25.6485 53.5463 25.2904 53.7365 24.9355C53.9272 24.5802 54.1431 24.2397 54.3851 23.9131C54.6275 23.5868 54.881 23.3146 55.1464 23.097C55.2041 23.1657 55.2298 23.3374 55.2243 23.6126C55.2179 23.8874 55.1835 24.214 55.1203 24.5917ZM60.9842 17.1347C60.8284 16.963 60.6382 16.8657 60.4132 16.8426C60.1886 16.8197 59.9608 16.9457 59.7302 17.2206C59.5799 17.4955 59.3897 17.759 59.1591 18.011C58.9286 18.2632 58.6893 18.4921 58.4414 18.6983C58.1934 18.9043 57.9569 19.0822 57.7323 19.2308C57.5073 19.3799 57.3313 19.4887 57.2048 19.5574C57.1585 19.1909 57.1324 18.7957 57.1269 18.3718C57.1209 17.948 57.1296 17.5186 57.153 17.0833C57.1874 16.4646 57.2593 15.8405 57.3689 15.2103C57.4784 14.5804 57.637 13.9617 57.8446 13.3544C57.8446 13.034 57.7695 12.7733 57.6196 12.5727C57.4697 12.3724 57.2882 12.2462 57.0751 12.1948C56.8615 12.1433 56.6424 12.1719 56.4178 12.2806C56.1928 12.3896 55.9998 12.5873 55.838 12.8733C55.7001 13.2515 55.541 13.6753 55.3627 14.1448C55.1835 14.6146 54.9818 15.0929 54.7573 15.5796C54.5322 16.0668 54.2815 16.5392 54.0047 16.9971C53.7278 17.4556 53.4253 17.8624 53.0962 18.2172C52.7681 18.5723 52.4101 18.8503 52.0242 19.0506C51.6373 19.2511 51.2198 19.3398 50.7702 19.317C50.5621 19.2596 50.4122 19.1051 50.3201 18.8529C50.228 18.6011 50.1734 18.2859 50.156 17.9079C50.1386 17.5299 50.156 17.1147 50.2078 16.6621C50.26 16.2098 50.3288 15.7601 50.4154 15.3135C50.502 14.8666 50.5974 14.4428 50.701 14.0419C50.8045 13.6411 50.9026 13.303 50.9948 13.0281C51.1332 12.6961 51.1332 12.418 50.9948 12.1948C50.8563 11.9713 50.6661 11.8226 50.4241 11.7479C50.1821 11.6735 49.9282 11.6766 49.6628 11.7566C49.3979 11.8368 49.2072 12.0143 49.0922 12.2891C48.896 12.7591 48.7173 13.2858 48.5559 13.8699C48.3946 14.4541 48.2649 15.0586 48.1668 15.6827C48.0687 16.3073 48.0137 16.9259 48.0023 17.5387C48.0018 17.5786 48.0036 17.6165 48.0032 17.6561C47.752 18.3221 47.5123 18.8254 47.2845 19.1622C46.9907 19.5977 46.6589 19.7867 46.2899 19.7292C46.1281 19.6605 46.0218 19.5003 45.9705 19.2481C45.9177 18.9963 45.9008 18.687 45.9177 18.3201C45.9356 17.9539 45.9787 17.5387 46.0479 17.0745C46.1171 16.6107 46.2033 16.1296 46.3069 15.6313C46.4109 15.1327 46.5205 14.632 46.636 14.1278C46.751 13.6238 46.8546 13.1484 46.9476 12.7016C46.9357 12.3007 46.8175 11.9944 46.5924 11.7823C46.3678 11.5707 46.0534 11.4876 45.6501 11.5332C45.3732 11.6478 45.1684 11.7969 45.0359 11.9801C44.903 12.1631 44.7966 12.3981 44.716 12.6843C44.6697 12.8334 44.6005 13.1312 44.5083 13.5781C44.4158 14.0245 44.298 14.5374 44.1536 15.1157C44.0097 15.6945 43.8396 16.2985 43.6435 16.9285C43.4473 17.5585 43.2282 18.1287 42.9862 18.6381C42.7437 19.1478 42.4788 19.5574 42.1905 19.8667C41.9022 20.1758 41.591 20.302 41.2564 20.2447C41.0717 20.2102 40.9539 20.0212 40.9021 19.6777C40.8499 19.334 40.8412 18.9104 40.876 18.4062C40.9104 17.9022 40.9796 17.3494 41.0836 16.7482C41.1872 16.1468 41.2936 15.577 41.4036 15.0383C41.5131 14.5002 41.6139 14.0245 41.7061 13.6123C41.7982 13.1999 41.8619 12.925 41.8963 12.7877C41.8963 12.4554 41.8211 12.1893 41.6717 11.9885C41.5214 11.7884 41.3399 11.6622 41.1267 11.6106C40.9131 11.5591 40.6941 11.5877 40.4695 11.6964C40.2444 11.8055 40.0515 12.0031 39.8897 12.2891C39.8324 12.5985 39.7572 12.9566 39.6651 13.3632C39.5725 13.7697 39.4836 14.1878 39.397 14.6175C39.3108 15.0471 39.2297 15.468 39.155 15.8804C39.0798 16.2929 39.0252 16.6536 38.9904 16.963C38.9675 17.2034 38.9414 17.4985 38.9125 17.8477C38.8836 18.1974 38.8694 18.5666 38.8694 18.956C38.8694 19.3457 38.8978 19.7322 38.956 20.1159C39.0133 20.4998 39.1174 20.852 39.2672 21.1724C39.4171 21.4933 39.6275 21.7566 39.8988 21.9628C40.1693 22.169 40.5126 22.2835 40.9278 22.3066C41.3541 22.3293 41.7262 22.2981 42.0434 22.212C42.3606 22.1261 42.6489 21.9914 42.9083 21.8081C43.1677 21.6252 43.4042 21.4074 43.6178 21.1552C43.8305 20.9035 44.0413 20.6286 44.2489 20.3306C44.4451 20.7661 44.6986 21.1038 45.0098 21.3444C45.3214 21.5848 45.6501 21.7283 45.9961 21.7738C46.3417 21.8194 46.6937 21.7712 47.0512 21.6278C47.4083 21.4848 47.7314 21.2413 48.0197 20.8976C48.2094 20.6868 48.3886 20.4472 48.5569 20.1824C48.6279 20.3064 48.704 20.4261 48.7892 20.5366C49.072 20.9035 49.4557 21.1552 49.9401 21.2928C50.4585 21.4303 50.9659 21.4534 51.4618 21.3616C51.9577 21.2701 52.4307 21.1038 52.8804 20.8633C53.33 20.6227 53.748 20.3336 54.1344 19.9955C54.5208 19.6577 54.8581 19.3056 55.1464 18.9388C55.1345 19.2023 55.129 19.4517 55.129 19.6862C55.129 19.9212 55.123 20.1758 55.1116 20.4509C54.535 20.852 53.99 21.3331 53.4771 21.8942C52.9638 22.4553 52.5141 23.0539 52.1278 23.6897C51.7414 24.3254 51.4389 24.9697 51.2198 25.6226C51.0007 26.2759 50.8939 26.8858 50.8999 27.4528C50.9054 28.0199 51.041 28.5152 51.306 28.9388C51.5713 29.3628 52.004 29.6663 52.6035 29.8495C53.2264 30.0446 53.7737 30.0496 54.2471 29.8668C54.7197 29.6836 55.1317 29.3798 55.4837 28.9562C55.8353 28.5321 56.1236 28.0199 56.3486 27.4181C56.5732 26.8168 56.7519 26.1898 56.8849 25.5369C57.0173 24.884 57.1007 24.2421 57.1356 23.6126C57.17 22.9823 57.17 22.4208 57.1356 21.9284C58.127 21.5162 58.9401 20.995 59.5744 20.3648C60.2087 19.7353 60.7331 19.0706 61.1483 18.3718C61.2753 18.2 61.3184 17.9938 61.2785 17.7533C61.2377 17.5127 61.1401 17.3065 60.9842 17.1347Z" fill="white"/>
<path fill-rule="evenodd" clip-rule="evenodd" d="M82.8035 16.0355C82.8383 15.7722 82.8901 15.4943 82.9593 15.2022C83.0285 14.9101 83.1151 14.6265 83.2187 14.3516C83.3223 14.0767 83.4433 13.8391 83.5822 13.6386C83.7206 13.4382 83.8673 13.295 84.0231 13.2089C84.1789 13.1233 84.3371 13.1318 84.4989 13.2347C84.6716 13.338 84.778 13.5555 84.8188 13.8875C84.8591 14.2201 84.8188 14.575 84.6978 14.953C84.5763 15.3312 84.3604 15.6861 84.0488 16.0183C83.738 16.3508 83.3168 16.5681 82.7865 16.6712C82.7631 16.5112 82.7691 16.2991 82.8035 16.0355ZM88.7972 16.7398C88.6069 16.6829 88.4254 16.6771 88.2522 16.7228C88.0794 16.7686 87.9694 16.8889 87.9236 17.0838C87.831 17.4502 87.6839 17.8254 87.4822 18.209C87.2805 18.5929 87.0326 18.9565 86.7388 19.3003C86.445 19.6438 86.1131 19.9475 85.7442 20.2108C85.3752 20.4743 84.9888 20.6633 84.5855 20.7778C84.1812 20.904 83.8471 20.9182 83.5822 20.8207C83.3168 20.7237 83.1064 20.5574 82.9506 20.3226C82.7952 20.0879 82.6825 19.8042 82.6133 19.4721C82.544 19.1399 82.5037 18.7963 82.4923 18.441C83.1495 18.487 83.7348 18.3697 84.2481 18.0887C84.761 17.8084 85.196 17.4358 85.554 16.972C85.911 16.5081 86.1823 15.9869 86.3666 15.4084C86.5508 14.8301 86.6549 14.2544 86.6783 13.6815C86.6897 13.1431 86.609 12.6879 86.4363 12.3156C86.263 11.9435 86.0293 11.6538 85.7355 11.4479C85.4417 11.2416 85.1039 11.1213 84.7234 11.0871C84.343 11.0526 83.9566 11.1043 83.5648 11.2416C83.0918 11.4021 82.6912 11.6626 82.3625 12.0236C82.0339 12.3843 81.7598 12.8026 81.5407 13.2778C81.3217 13.7532 81.1489 14.2657 81.0219 14.8155C80.8949 15.3655 80.8028 15.9067 80.7451 16.4394C80.6933 16.9175 80.6658 17.3746 80.6557 17.8158C80.6309 17.8718 80.6071 17.9257 80.581 17.9856C80.4022 18.3926 80.1941 18.7906 79.9581 19.1799C79.7216 19.5695 79.4594 19.896 79.1711 20.1593C78.8828 20.4229 78.5831 20.5145 78.2719 20.4342C78.0872 20.3887 77.9863 20.1764 77.9689 19.7986C77.9519 19.4204 77.9717 18.9509 78.0294 18.3895C78.0872 17.8284 78.1536 17.2209 78.2283 16.5681C78.3035 15.9152 78.3406 15.2911 78.3406 14.6954C78.3406 14.1798 78.2425 13.6846 78.0468 13.2089C77.8507 12.734 77.5825 12.3385 77.2424 12.0236C76.9023 11.7083 76.5073 11.4993 76.0576 11.3964C75.608 11.293 75.1235 11.3619 74.6047 11.6024C74.0854 11.8431 73.6734 12.1809 73.3681 12.6162C73.0619 13.0518 72.7823 13.5097 72.5289 13.9909C72.4363 13.6242 72.3011 13.2837 72.1223 12.9685C71.9436 12.6535 71.725 12.3786 71.4651 12.1436C71.2057 11.9091 70.9142 11.7258 70.5919 11.5939C70.2688 11.4624 69.9283 11.3964 69.5708 11.3964C69.2252 11.3964 68.9053 11.4624 68.611 11.5939C68.3172 11.7258 68.0491 11.8945 67.8066 12.1007C67.5646 12.3071 67.3455 12.5388 67.1494 12.7967C66.9537 13.0544 66.7799 13.3094 66.6305 13.5612C66.6071 13.2634 66.5815 13.003 66.5526 12.7793C66.5237 12.5561 66.4719 12.3671 66.3968 12.2125C66.3221 12.0578 66.2153 11.9405 66.0769 11.8602C65.9384 11.7803 65.7427 11.7399 65.4893 11.7399C65.3618 11.7399 65.2349 11.7657 65.1084 11.8171C64.9814 11.8687 64.8687 11.9405 64.771 12.032C64.673 12.124 64.5982 12.2354 64.5465 12.3671C64.4942 12.4987 64.48 12.6507 64.5029 12.8225C64.5144 12.9487 64.5465 13.1001 64.5983 13.2778C64.65 13.4555 64.6991 13.6876 64.7454 13.9736C64.7912 14.26 64.8288 14.6066 64.8577 15.0132C64.8861 15.4199 64.8948 15.9183 64.8833 16.5081C64.8719 17.0982 64.8288 17.7881 64.7536 18.5785C64.6785 19.3689 64.5602 20.2854 64.3993 21.3275C64.376 21.5682 64.4681 21.7631 64.6762 21.912C64.8833 22.0606 65.1198 22.1465 65.3852 22.1696C65.6501 22.1925 65.9013 22.1465 66.1374 22.0323C66.3739 21.9174 66.5095 21.7171 66.5439 21.4309C66.5787 20.8924 66.6447 20.3198 66.7428 19.7125C66.8409 19.1056 66.9619 18.5042 67.1063 17.9085C67.2502 17.3129 67.4143 16.746 67.5995 16.2073C67.7837 15.6689 67.9886 15.1937 68.2132 14.7813C68.4382 14.3688 68.6715 14.0397 68.914 13.7934C69.156 13.547 69.4094 13.4239 69.6748 13.4239C69.9979 13.4239 70.2482 13.5697 70.4274 13.8618C70.6057 14.1541 70.7327 14.5295 70.8078 14.9873C70.883 15.4457 70.9174 15.947 70.9119 16.4909C70.9054 17.035 70.883 17.559 70.8427 18.063C70.8019 18.5672 70.756 19.0167 70.7038 19.4119C70.652 19.8071 70.6149 20.0794 70.5919 20.228C70.5919 20.4916 70.6928 20.7004 70.8945 20.8552C71.0961 21.0097 71.3207 21.1015 71.5691 21.1301C71.8171 21.1588 72.0504 21.1128 72.2695 20.9925C72.4886 20.8722 72.6155 20.6692 72.6499 20.3825C72.7654 19.558 72.924 18.7305 73.1256 17.9C73.3273 17.0694 73.5579 16.325 73.8177 15.6663C74.0771 15.0075 74.365 14.4691 74.6826 14.051C74.9998 13.6331 75.3367 13.4239 75.6946 13.4239C75.8789 13.4239 76.0201 13.5501 76.1181 13.8019C76.2158 14.0538 76.2653 14.3974 76.2653 14.8327C76.2653 15.1536 76.2391 15.4829 76.1873 15.8208C76.1356 16.1587 76.075 16.5081 76.0058 16.8689C75.9366 17.2299 75.8761 17.5991 75.8239 17.9771C75.7721 18.3553 75.7464 18.7503 75.7464 19.1628C75.7464 19.4492 75.7753 19.7814 75.8326 20.1593C75.8903 20.5371 75.9999 20.8955 76.1612 21.2331C76.323 21.5712 76.5448 21.8575 76.8276 22.0922C77.11 22.327 77.4702 22.4445 77.9084 22.4445C78.5657 22.4445 79.1478 22.3041 79.6556 22.0235C80.163 21.743 80.5984 21.3766 80.9614 20.9241C80.9802 20.9003 80.9976 20.875 81.0159 20.8515C81.0439 20.9184 81.0682 20.9892 81.0998 21.0529C81.3478 21.5568 81.6851 21.9462 82.1118 22.2213C82.5381 22.4962 83.04 22.6479 83.6166 22.6767C84.1931 22.705 84.8215 22.599 85.5022 22.3586C86.0091 22.1753 86.4505 21.9462 86.8249 21.6713C87.1999 21.3964 87.5372 21.0614 87.8369 20.6662C88.1372 20.271 88.4108 19.8156 88.6587 19.3003C88.9067 18.7845 89.1574 18.1949 89.4109 17.5302C89.4572 17.3473 89.4141 17.1841 89.2816 17.0406C89.1487 16.8977 88.9874 16.7974 88.7972 16.7398Z" fill="white"/>
<path fill-rule="evenodd" clip-rule="evenodd" d="M98.1981 14.8235C98.1404 15.1616 98.0625 15.5341 97.9648 15.9405C97.8663 16.3472 97.7426 16.7681 97.5927 17.2034C97.4428 17.6388 97.2581 18.0311 97.0395 18.3803C96.8199 18.73 96.5692 19.0075 96.2869 19.2137C96.0041 19.4199 95.6787 19.5058 95.3092 19.4714C95.125 19.4487 94.9834 19.3227 94.8857 19.0934C94.7876 18.8645 94.7359 18.5722 94.7299 18.2171C94.7239 17.8622 94.7556 17.4727 94.8252 17.0487C94.8944 16.6251 95.0008 16.2097 95.1452 15.8029C95.2891 15.3966 95.4651 15.0212 95.6727 14.6774C95.8803 14.3339 96.1196 14.0675 96.3905 13.8785C96.6613 13.6895 96.9583 13.601 97.2815 13.6122C97.6041 13.6237 97.9502 13.7839 98.3191 14.0933C98.2958 14.2423 98.2559 14.4859 98.1981 14.8235ZM104.347 16.138C104.168 16.0464 103.984 16.0266 103.794 16.078C103.604 16.1295 103.468 16.3043 103.387 16.602C103.341 16.9229 103.238 17.3007 103.076 17.736C102.914 18.1713 102.716 18.584 102.479 18.9731C102.243 19.3626 101.972 19.6863 101.666 19.9439C101.361 20.2018 101.035 20.3193 100.689 20.296C100.4 20.2733 100.199 20.1273 100.084 19.8581C99.9678 19.5888 99.9077 19.2512 99.9018 18.8442C99.8958 18.4379 99.9366 17.9797 100.023 17.4698C100.109 16.9602 100.213 16.4534 100.334 15.949C100.455 15.4452 100.579 14.9611 100.706 14.4972C100.833 14.0333 100.937 13.6409 101.018 13.3203C101.11 13.0338 101.081 12.7906 100.931 12.5898C100.781 12.3897 100.594 12.2463 100.369 12.1604C100.144 12.0745 99.916 12.0516 99.6855 12.0917C99.4549 12.1318 99.305 12.255 99.2358 12.461C98.5552 11.8768 97.9011 11.5618 97.2728 11.516C96.6439 11.4702 96.0646 11.6078 95.5343 11.9285C95.0035 12.2491 94.5337 12.713 94.1244 13.3203C93.7151 13.9276 93.3838 14.5889 93.1298 15.3048C92.8764 16.0207 92.7173 16.7511 92.6545 17.4956C92.5908 18.2402 92.6399 18.919 92.8012 19.5317C92.963 20.1445 93.2481 20.6459 93.6578 21.035C94.0667 21.4245 94.6231 21.6194 95.3267 21.6194C95.6383 21.6194 95.9381 21.5564 96.2264 21.4304C96.5142 21.3042 96.7796 21.1553 97.0221 20.9835C97.2641 20.8118 97.4772 20.6313 97.6619 20.4423C97.8461 20.2533 97.9905 20.0959 98.0946 19.9697C98.1748 20.3821 98.3077 20.7317 98.4924 21.018C98.6766 21.3042 98.887 21.5394 99.1235 21.7223C99.3596 21.9054 99.608 22.0401 99.8674 22.1262C100.127 22.2121 100.378 22.255 100.62 22.255C101.162 22.255 101.669 22.0717 102.142 21.7051C102.615 21.3388 103.039 20.8889 103.414 20.3564C103.788 19.8236 104.097 19.2625 104.339 18.6725C104.581 18.0826 104.742 17.5585 104.823 17.1001C104.904 16.9284 104.889 16.7481 104.78 16.5591C104.67 16.3701 104.526 16.2299 104.347 16.138Z" fill="white"/>
<path fill-rule="evenodd" clip-rule="evenodd" d="M135.483 25.6238C135.385 26.0131 135.231 26.3427 135.024 26.6116C134.817 26.8808 134.557 27.0215 134.246 27.0329C134.05 27.0443 133.9 26.9411 133.796 26.7236C133.692 26.5056 133.62 26.2252 133.58 25.8817C133.539 25.538 133.522 25.1541 133.528 24.7303C133.534 24.3066 133.551 23.8885 133.58 23.476C133.608 23.0638 133.643 22.6797 133.684 22.3249C133.724 21.9695 133.756 21.6951 133.779 21.5002C134.17 21.546 134.497 21.7147 134.756 22.007C135.016 22.2991 135.215 22.6455 135.353 23.0466C135.491 23.4475 135.572 23.88 135.595 24.3438C135.618 24.8077 135.58 25.2343 135.483 25.6238ZM129.221 25.6238C129.123 26.0131 128.97 26.3427 128.762 26.6116C128.555 26.8808 128.295 27.0215 127.984 27.0329C127.788 27.0443 127.638 26.9411 127.535 26.7236C127.431 26.5056 127.359 26.2252 127.318 25.8817C127.277 25.538 127.26 25.1541 127.266 24.7303C127.272 24.3066 127.289 23.8885 127.318 23.476C127.347 23.0638 127.381 22.6797 127.422 22.3249C127.462 21.9695 127.494 21.6951 127.517 21.5002C127.909 21.546 128.235 21.7147 128.494 22.007C128.754 22.2991 128.953 22.6455 129.091 23.0466C129.23 23.4475 129.31 23.88 129.334 24.3438C129.356 24.8077 129.319 25.2343 129.221 25.6238ZM122.795 15.8644C122.783 16.1391 122.757 16.3826 122.717 16.5945C122.677 16.8068 122.622 16.9411 122.553 16.9984C122.426 16.9295 122.27 16.7523 122.086 16.4656C121.901 16.1794 121.757 15.8555 121.653 15.4948C121.55 15.134 121.518 14.7791 121.558 14.4295C121.598 14.0802 121.78 13.8084 122.103 13.6133C122.23 13.5447 122.339 13.5704 122.432 13.6907C122.524 13.811 122.599 13.9856 122.656 14.2148C122.714 14.444 122.755 14.7074 122.777 15.0052C122.801 15.3031 122.806 15.5894 122.795 15.8644ZM121.264 19.2922C121.085 19.481 120.886 19.6443 120.667 19.7819C120.448 19.9194 120.223 20.0225 119.993 20.0912C119.762 20.1601 119.554 20.1771 119.37 20.1426C118.851 20.0397 118.453 19.8161 118.177 19.4725C117.9 19.129 117.724 18.7253 117.649 18.2614C117.574 17.7973 117.583 17.3018 117.675 16.775C117.767 16.2481 117.923 15.7585 118.142 15.306C118.361 14.8535 118.626 14.4639 118.938 14.1376C119.249 13.811 119.589 13.6079 119.958 13.5274C119.82 14.1116 119.774 14.7161 119.82 15.3402C119.866 15.9645 120.016 16.5515 120.269 17.1013C120.431 17.4339 120.624 17.7371 120.849 18.012C121.074 18.2871 121.348 18.5219 121.671 18.7166C121.578 18.9114 121.443 19.1033 121.264 19.2922ZM140.404 16.0362C140.438 15.7729 140.49 15.4948 140.559 15.2027C140.628 14.9108 140.715 14.6272 140.819 14.3523C140.923 14.0772 141.044 13.8396 141.182 13.6393C141.32 13.439 141.467 13.2955 141.623 13.2096C141.779 13.1237 141.937 13.1322 142.099 13.2354C142.272 13.3387 142.378 13.5562 142.419 13.8882C142.459 14.2206 142.419 14.5755 142.298 14.9537C142.177 15.3317 141.96 15.6868 141.649 16.0188C141.338 16.3514 140.917 16.5688 140.386 16.6718C140.363 16.5116 140.369 16.2998 140.404 16.0362ZM147.375 16.0362C147.409 15.7729 147.461 15.4948 147.53 15.2027C147.599 14.9108 147.686 14.6272 147.789 14.3523C147.894 14.0772 148.015 13.8396 148.153 13.6393C148.291 13.439 148.438 13.2955 148.594 13.2096C148.75 13.1237 148.908 13.1322 149.07 13.2354C149.242 13.3387 149.349 13.5562 149.39 13.8882C149.43 14.2206 149.39 14.5755 149.269 14.9537C149.148 15.3317 148.931 15.6868 148.62 16.0188C148.309 16.3514 147.888 16.5688 147.357 16.6718C147.334 16.5116 147.34 16.2998 147.375 16.0362ZM153.852 17.0413C153.719 16.8983 153.559 16.7981 153.368 16.7405C153.178 16.6834 152.996 16.6777 152.823 16.7235C152.65 16.7693 152.541 16.8896 152.494 17.0843C152.402 17.4509 152.255 17.8261 152.053 18.2095C151.852 18.5936 151.604 18.9572 151.31 19.3007C151.016 19.6443 150.684 19.9482 150.315 20.2115C149.946 20.475 149.56 20.664 149.156 20.7783C148.752 20.9047 148.418 20.9189 148.153 20.8214C147.888 20.7242 147.677 20.5581 147.521 20.3233C147.366 20.0883 147.254 19.8049 147.184 19.4725C147.115 19.1405 147.074 18.797 147.063 18.4417C147.721 18.4877 148.306 18.3704 148.819 18.0894C149.332 17.8089 149.767 17.4363 150.125 16.9725C150.482 16.5088 150.753 15.9876 150.938 15.4091C151.122 14.8306 151.226 14.2551 151.249 13.6822C151.26 13.1438 151.18 12.6884 151.007 12.3161C150.834 11.944 150.6 11.6545 150.307 11.4485C150.012 11.2421 149.675 11.122 149.294 11.0876C148.914 11.0531 148.527 11.105 148.136 11.2421C147.663 11.4028 147.262 11.6633 146.934 12.024C146.605 12.385 146.331 12.8033 146.112 13.2783C145.892 13.7539 145.72 14.2662 145.593 14.8162C145.466 15.3659 145.374 15.9074 145.316 16.4399C145.26 16.9568 145.23 17.4514 145.223 17.9248C145.179 18.0192 145.132 18.114 145.083 18.2095C144.88 18.5936 144.633 18.9572 144.339 19.3007C144.045 19.6443 143.713 19.9482 143.344 20.2115C142.975 20.475 142.589 20.664 142.185 20.7783C141.781 20.9047 141.447 20.9189 141.182 20.8214C140.917 20.7242 140.706 20.5581 140.55 20.3233C140.395 20.0883 140.282 19.8049 140.214 19.4725C140.144 19.1405 140.104 18.797 140.092 18.4417C140.749 18.4877 141.335 18.3704 141.848 18.0894C142.361 17.8089 142.796 17.4363 143.154 16.9725C143.511 16.5088 143.782 15.9876 143.967 15.4091C144.151 14.8306 144.255 14.2551 144.278 13.6822C144.29 13.1438 144.209 12.6884 144.036 12.3161C143.863 11.944 143.63 11.6545 143.335 11.4485C143.042 11.2421 142.704 11.122 142.324 11.0876C141.943 11.0531 141.557 11.105 141.165 11.2421C140.692 11.4028 140.291 11.6633 139.962 12.024C139.634 12.385 139.36 12.8033 139.141 13.2783C138.922 13.7539 138.749 14.2662 138.622 14.8162C138.495 15.3659 138.403 15.9074 138.345 16.4399C138.312 16.7403 138.291 17.0315 138.275 17.3175C138.163 17.4117 138.054 17.5065 137.939 17.5996C137.541 17.9205 137.123 18.2095 136.685 18.4674C136.246 18.7253 135.791 18.9372 135.318 19.1033C134.845 19.2694 134.361 19.3697 133.865 19.4039L134.938 7.99477C135.007 7.75415 134.972 7.54245 134.834 7.35913C134.696 7.1758 134.517 7.04982 134.298 6.98114C134.079 6.91228 133.845 6.91818 133.597 6.99814C133.349 7.07861 133.145 7.26193 132.983 7.54793C132.902 7.98344 132.819 8.57897 132.733 9.33497C132.646 10.0909 132.559 10.9158 132.473 11.8093C132.387 12.7028 132.3 13.6249 132.213 14.5755C132.127 15.5266 132.051 16.4142 131.989 17.2389C131.985 17.2755 131.983 17.3086 131.98 17.3448C131.88 17.4298 131.782 17.5154 131.677 17.5996C131.28 17.9205 130.861 18.2095 130.423 18.4674C129.984 18.7253 129.529 18.9372 129.057 19.1033C128.584 19.2694 128.099 19.3697 127.604 19.4039L128.676 7.99477C128.746 7.75415 128.711 7.54245 128.572 7.35913C128.434 7.1758 128.255 7.04982 128.036 6.98114C127.817 6.91228 127.584 6.91818 127.335 6.99814C127.087 7.07861 126.883 7.26193 126.721 7.54793C126.641 7.98344 126.557 8.57897 126.471 9.33497C126.384 10.0909 126.298 10.9158 126.211 11.8093C126.125 12.7028 126.038 13.6249 125.951 14.5755C125.865 15.5266 125.79 16.4142 125.727 17.2389C125.726 17.2554 125.725 17.2704 125.723 17.287C125.542 17.3705 125.345 17.4437 125.13 17.5052C124.911 17.5684 124.663 17.6057 124.386 17.617C124.433 17.4106 124.47 17.1815 124.499 16.9295C124.527 16.6777 124.551 16.4142 124.568 16.1391C124.585 15.8644 124.591 15.5894 124.585 15.3145C124.579 15.0394 124.565 14.7876 124.542 14.5583C124.484 14.0661 124.378 13.5992 124.222 13.1579C124.066 12.7172 123.856 12.3479 123.591 12.0497C123.325 11.7519 122.994 11.5514 122.596 11.4485C122.198 11.3454 121.734 11.3796 121.204 11.5514C120.419 11.4485 119.713 11.5202 119.085 11.7663C118.456 12.0129 117.911 12.3706 117.45 12.8401C116.989 13.3101 116.611 13.8625 116.317 14.4983C116.023 15.134 115.827 15.7871 115.729 16.4569C115.687 16.741 115.667 17.0237 115.661 17.3058C115.483 17.6689 115.287 17.9863 115.071 18.2527C114.766 18.6306 114.449 18.94 114.12 19.1804C113.792 19.4211 113.466 19.6044 113.143 19.7304C112.82 19.8566 112.532 19.9425 112.278 19.9881C111.979 20.0454 111.69 20.0513 111.413 20.0053C111.137 19.9597 110.883 19.8278 110.653 19.6101C110.468 19.4498 110.326 19.192 110.229 18.8369C110.131 18.4818 110.073 18.0783 110.056 17.6256C110.038 17.173 110.056 16.7004 110.108 16.208C110.159 15.7156 110.248 15.2487 110.376 14.8077C110.502 14.3667 110.664 13.9715 110.86 13.6218C111.055 13.2728 111.286 13.0235 111.552 12.8746C111.701 12.8977 111.794 12.9862 111.829 13.1407C111.863 13.2955 111.872 13.4789 111.854 13.6907C111.837 13.9028 111.811 14.1203 111.777 14.3436C111.742 14.567 111.725 14.7534 111.725 14.902C111.782 15.2114 111.895 15.452 112.062 15.6238C112.229 15.7956 112.417 15.8961 112.624 15.9244C112.832 15.9532 113.036 15.9046 113.239 15.7783C113.44 15.6526 113.604 15.452 113.731 15.1769C113.743 15.1885 113.76 15.1942 113.783 15.1942L114.026 13.0121C114.094 12.7141 114.048 12.4508 113.887 12.2217C113.725 11.9926 113.512 11.8607 113.247 11.8265C112.912 11.3454 112.46 11.0906 111.889 11.0618C111.318 11.0333 110.733 11.2194 110.133 11.6203C109.764 11.884 109.438 12.2474 109.156 12.7113C108.873 13.1754 108.643 13.6907 108.464 14.2577C108.285 14.8247 108.158 15.4235 108.084 16.0534C108.008 16.6834 107.994 17.2964 108.04 17.8917C108.086 18.4877 108.193 19.049 108.36 19.5756C108.527 20.1027 108.761 20.5437 109.061 20.8986C109.315 21.2079 109.603 21.4344 109.926 21.5776C110.248 21.7208 110.586 21.8093 110.938 21.8437C111.289 21.878 111.638 21.8636 111.985 21.8008C112.33 21.7381 112.659 21.6493 112.97 21.5344C113.374 21.3858 113.789 21.1966 114.216 20.9675C114.642 20.7386 115.051 20.4635 115.444 20.1426C115.65 19.9739 115.848 19.7899 116.04 19.5926C116.128 19.808 116.226 20.0164 116.343 20.2115C116.655 20.7268 117.075 21.1451 117.606 21.4658C118.136 21.7864 118.788 21.9408 119.56 21.9296C120.391 21.9181 121.157 21.7093 121.861 21.3025C122.564 20.8962 123.141 20.2971 123.591 19.507C124.264 19.507 124.927 19.3967 125.578 19.1776C125.573 19.2469 125.567 19.3199 125.562 19.3868C125.517 19.9939 125.493 20.4062 125.493 20.6239C125.482 21.0019 125.456 21.4686 125.416 22.024C125.375 22.5797 125.349 23.1639 125.338 23.7766C125.326 24.3894 125.349 25.008 125.407 25.6325C125.465 26.2566 125.586 26.8236 125.77 27.3336C125.955 27.8431 126.217 28.2758 126.557 28.6308C126.897 28.9859 127.344 29.1979 127.898 29.2664C128.486 29.3464 128.993 29.2436 129.42 28.9571C129.846 28.6706 130.192 28.2785 130.458 27.7805C130.723 27.2819 130.91 26.7062 131.02 26.0535C131.129 25.4006 131.161 24.7447 131.115 24.0859C131.069 23.4272 130.948 22.8059 130.752 22.222C130.555 21.6375 130.285 21.1565 129.939 20.7783C130.147 20.7214 130.394 20.6126 130.682 20.4519C130.97 20.2917 131.268 20.1112 131.573 19.9107C131.648 19.8614 131.722 19.8095 131.797 19.759C131.769 20.1649 131.755 20.4543 131.755 20.6239C131.744 21.0019 131.718 21.4686 131.677 22.024C131.637 22.5797 131.611 23.1639 131.6 23.7766C131.588 24.3894 131.611 25.008 131.668 25.6325C131.726 26.2566 131.848 26.8236 132.032 27.3336C132.216 27.8431 132.479 28.2758 132.819 28.6308C133.159 28.9859 133.606 29.1979 134.159 29.2664C134.747 29.3464 135.255 29.2436 135.682 28.9571C136.108 28.6706 136.454 28.2785 136.719 27.7805C136.985 27.2819 137.172 26.7062 137.282 26.0535C137.391 25.4006 137.422 24.7447 137.376 24.0859C137.33 23.4272 137.209 22.8059 137.013 22.222C136.817 21.6375 136.546 21.1565 136.2 20.7783C136.408 20.7214 136.656 20.6126 136.944 20.4519C137.232 20.2917 137.529 20.1112 137.835 19.9107C137.994 19.8065 138.152 19.699 138.309 19.5885C138.369 20.1487 138.496 20.64 138.7 21.0533C138.948 21.5576 139.285 21.9469 139.712 22.222C140.138 22.4966 140.64 22.6486 141.217 22.6771C141.793 22.7054 142.421 22.5997 143.102 22.3591C143.609 22.176 144.05 21.9469 144.425 21.672C144.8 21.3969 145.137 21.0618 145.437 20.6669C145.454 20.644 145.471 20.6191 145.488 20.596C145.541 20.7565 145.6 20.9106 145.671 21.0533C145.919 21.5576 146.256 21.9469 146.683 22.222C147.109 22.4966 147.611 22.6486 148.187 22.6771C148.764 22.7054 149.392 22.5997 150.073 22.3591C150.58 22.176 151.021 21.9469 151.396 21.672C151.771 21.3969 152.108 21.0618 152.408 20.6669C152.708 20.2714 152.982 19.8161 153.23 19.3007C153.477 18.7852 153.728 18.1955 153.982 17.5309C154.028 17.3478 153.985 17.1846 153.852 17.0413Z" fill="white"/>
<path d="M17.8495 6.69231L17.8297 6.68071L17.7839 6.66677C17.8023 6.68226 17.8254 6.69126 17.8495 6.69231Z" fill="white"/>
<path d="M17.8576 6.68916C17.8548 6.6888 17.8521 6.68811 17.8494 6.6872C17.8492 6.68902 17.8494 6.69049 17.8495 6.69231C17.8525 6.6919 17.8553 6.69103 17.8576 6.68916Z" fill="white"/>
<path d="M17.8495 6.69231L17.8522 6.69259V6.69076L17.8495 6.69231Z" fill="white"/>
<path d="M18.1196 8.74383L18.153 8.72487L18.1654 8.71792L18.1767 8.7059C18.1555 8.715 18.1362 8.72788 18.1196 8.74383Z" fill="white"/>
<path d="M17.9076 6.73719L17.875 6.70621L17.8528 6.69419C17.8647 6.71512 17.8844 6.73056 17.9076 6.73719Z" fill="white"/>
<path d="M9.70224 26.6815C9.67616 26.6925 9.65334 26.7103 9.63583 26.7327L9.65641 26.7195C9.67039 26.7067 9.69019 26.6916 9.70224 26.6815Z" fill="white"/>
<path d="M14.467 25.7469C14.467 25.7175 14.4526 25.7229 14.4561 25.8274C14.4561 25.8189 14.4596 25.8103 14.4612 25.8022C14.4631 25.7836 14.4647 25.7655 14.467 25.7469Z" fill="white"/>
<path d="M13.9723 26.6815C13.9462 26.6925 13.9234 26.7103 13.9059 26.7327L13.9265 26.7195C13.9405 26.7067 13.9603 26.6916 13.9723 26.6815Z" fill="white"/>
<path d="M6.34697 26.9036C6.32717 26.8862 6.30297 26.8753 6.27708 26.8712C6.29802 26.8812 6.31901 26.8913 6.33299 26.899L6.34697 26.9036Z" fill="white"/>
<path d="M5.59209 26.1828C5.58897 26.1524 5.57958 26.1228 5.5645 26.0961C5.57518 26.1239 5.58416 26.1524 5.59131 26.1813L5.59209 26.1828Z" fill="white"/>
<path d="M10.6641 13.2901C9.62753 13.7325 8.45121 14.234 6.92668 14.234C6.2889 14.2328 5.65424 14.1456 5.03993 13.9747L6.09434 24.7672C6.13165 25.2183 6.33776 25.6389 6.6718 25.9454C7.00579 26.2521 7.44323 26.4222 7.89721 26.4221C7.89721 26.4221 9.39227 26.4995 9.89112 26.4995C10.428 26.4995 12.038 26.4221 12.038 26.4221C12.4919 26.4221 12.9293 26.2519 13.2632 25.9454C13.5971 25.6388 13.8032 25.2182 13.8405 24.7672L14.9698 12.8411C14.4652 12.6692 13.9558 12.5551 13.3816 12.5551C12.3886 12.5547 11.5884 12.8957 10.6641 13.2901Z" fill="#FFDD00"/>
<path d="M1.77514 8.68552L1.79301 8.70216L1.80465 8.7091C1.79567 8.70024 1.78582 8.69233 1.77514 8.68552Z" fill="white"/>
<path d="M19.8452 7.6894L19.6865 6.89095C19.544 6.17456 19.2206 5.49765 18.483 5.2387C18.2465 5.15586 17.9783 5.12026 17.797 4.94882C17.6157 4.77738 17.5621 4.51108 17.5202 4.26415C17.4425 3.81095 17.3696 3.35731 17.29 2.90489C17.2212 2.5159 17.1669 2.07893 16.9879 1.72211C16.755 1.24296 16.2717 0.962721 15.791 0.777341C15.5448 0.685679 15.2935 0.608184 15.0383 0.545126C13.8375 0.229336 12.575 0.113183 11.3397 0.0470182C9.85698 -0.0345453 8.37031 -0.00996199 6.89111 0.12054C5.79009 0.220426 4.6305 0.341148 3.58425 0.720864C3.20185 0.859773 2.80777 1.0266 2.517 1.32114C2.16023 1.68299 2.04377 2.24265 2.30429 2.69397C2.48946 3.01442 2.80315 3.24083 3.13585 3.39062C3.56921 3.58363 4.02178 3.73044 4.48607 3.82873C5.77886 4.11358 7.11781 4.22544 8.43856 4.27306C9.9024 4.33196 11.3686 4.2842 12.8255 4.13022C13.1857 4.09074 13.5453 4.0434 13.9043 3.9882C14.3271 3.92354 14.5984 3.37243 14.4738 2.98847C14.3247 2.52947 13.9241 2.3514 13.4711 2.42072C13.4043 2.43114 13.3379 2.44083 13.2711 2.45051L13.223 2.45746C13.0695 2.47683 12.916 2.49488 12.7626 2.51165C12.4455 2.54574 12.1277 2.57357 11.8091 2.59527C11.0955 2.6448 10.38 2.66765 9.66493 2.66879C8.96225 2.66879 8.25921 2.64905 7.55804 2.60299C7.23817 2.58211 6.91903 2.55552 6.60071 2.52326C6.45592 2.50818 6.3115 2.49232 6.16708 2.4745L6.02962 2.45709L5.99974 2.45284L5.85729 2.43233C5.5661 2.3886 5.27492 2.33829 4.98685 2.27751C4.9578 2.27107 4.93181 2.25494 4.91315 2.23178C4.89455 2.20866 4.88437 2.17987 4.88437 2.15017C4.88437 2.12047 4.89455 2.09168 4.91315 2.06851C4.93181 2.04539 4.9578 2.02926 4.98685 2.02282H4.99231C5.24192 1.96981 5.4935 1.92453 5.74586 1.88505C5.82997 1.87189 5.91435 1.85901 5.99896 1.84635H6.0013C6.15929 1.83588 6.3181 1.80765 6.47531 1.78905C7.84327 1.64721 9.21938 1.59882 10.5939 1.64429C11.2613 1.66366 11.9283 1.70273 12.5925 1.77008C12.7354 1.7848 12.8775 1.80029 13.0196 1.8177C13.0739 1.82428 13.1286 1.832 13.1834 1.83858L13.2936 1.85448C13.6151 1.90219 13.9349 1.96013 14.2529 2.02826C14.7242 2.13043 15.3294 2.16369 15.5391 2.67848C15.6059 2.84179 15.6362 3.02333 15.673 3.19477L15.72 3.41346C15.7212 3.41735 15.7222 3.42137 15.7228 3.42543C15.8338 3.9415 15.9449 4.45752 16.0562 4.97359C16.0644 5.0117 16.0646 5.05108 16.0568 5.08928C16.049 5.12748 16.0334 5.16367 16.011 5.19561C15.9885 5.22751 15.9597 5.25451 15.9263 5.27485C15.893 5.29518 15.8558 5.30843 15.8171 5.31378H15.814L15.746 5.32305L15.6788 5.33196C15.4661 5.35961 15.2531 5.38538 15.0399 5.40937C14.6198 5.45712 14.1991 5.49838 13.7777 5.53325C12.9405 5.60266 12.1016 5.64817 11.2609 5.66987C10.8326 5.6812 10.4044 5.6865 9.97628 5.68573C8.27236 5.6844 6.56996 5.58566 4.8774 5.39004C4.69416 5.36834 4.51092 5.34512 4.32767 5.32155C4.46976 5.33973 4.22441 5.30761 4.17472 5.30062C4.05826 5.28435 3.9418 5.26749 3.82533 5.24994C3.43437 5.1915 3.04579 5.11949 2.65561 5.05643C2.18393 4.97903 1.73279 5.01773 1.30617 5.24994C0.955949 5.44099 0.672466 5.73398 0.493622 6.0898C0.309599 6.4691 0.254828 6.88204 0.172556 7.28958C0.0902381 7.69717 -0.0378671 8.13565 0.010671 8.55406C0.115081 9.45697 0.748276 10.1908 1.65904 10.3549C2.51586 10.5097 3.37731 10.6351 4.24109 10.7419C7.63426 11.1562 11.0623 11.2058 14.4661 10.8898C14.7432 10.864 15.0201 10.8359 15.2965 10.8054C15.3828 10.796 15.4702 10.8059 15.5522 10.8345C15.6342 10.863 15.7087 10.9095 15.7703 10.9705C15.832 11.0315 15.8791 11.1055 15.9084 11.187C15.9376 11.2685 15.9482 11.3556 15.9394 11.4417L15.8532 12.2769C15.6795 13.9647 15.5059 15.6523 15.3322 17.3398C15.151 19.1118 14.9687 20.8838 14.7852 22.6556C14.7334 23.1547 14.6816 23.6535 14.6299 24.1523C14.5802 24.6434 14.5732 25.1501 14.4796 25.6354C14.3321 26.3986 13.8139 26.8675 13.0576 27.0389C12.3647 27.196 11.657 27.2787 10.9464 27.2851C10.1587 27.2893 9.37146 27.2545 8.58376 27.2586C7.74284 27.2632 6.71291 27.186 6.06381 26.5618C5.4935 26.0139 5.41471 25.1559 5.33707 24.4139C5.23353 23.4316 5.13091 22.4495 5.0292 21.4675L4.08929 12.4735C4.0831 12.4151 4.07687 12.3574 4.07105 12.2986C4.02682 11.8771 3.72748 11.4645 3.2558 11.4858C2.85205 11.5036 2.39316 11.8458 2.44055 12.2986L3.28028 20.3365C3.44147 21.8756 3.60235 23.415 3.76282 24.9546C3.79389 25.2495 3.823 25.5453 3.85558 25.8402C4.03301 27.4519 5.26754 28.3201 6.79638 28.565C7.68927 28.7081 8.60393 28.7373 9.51002 28.7524C10.6716 28.7707 11.8448 28.8154 12.9873 28.6057C14.6804 28.2959 15.9506 27.1691 16.1319 25.4206C16.1837 24.9159 16.2354 24.4111 16.2872 23.9061C16.4593 22.2362 16.6312 20.5662 16.8028 18.896L17.6215 10.9378C17.6343 10.8138 17.6869 10.6971 17.7713 10.6052C17.8558 10.5133 17.9677 10.4509 18.0905 10.4273C18.5746 10.3332 19.0374 10.1726 19.3817 9.80534C19.9299 9.22051 20.039 8.45806 19.8452 7.6894ZM1.6342 8.22895C1.64158 8.22543 1.62796 8.28854 1.62214 8.31796C1.621 8.27346 1.62333 8.23398 1.6342 8.22895ZM1.68118 8.59121C1.68507 8.58847 1.69672 8.60396 1.70872 8.62256C1.69048 8.60552 1.67925 8.59277 1.68118 8.59121ZM1.72738 8.65194C1.753 8.698 1.74406 8.68022 1.72738 8.65194ZM1.82015 8.72706H1.82248C1.82248 8.72976 1.82675 8.73245 1.8283 8.73519C1.82574 8.73218 1.82326 8.72948 1.82015 8.72706ZM18.068 8.61479C17.894 8.7797 17.632 8.85633 17.373 8.89462C14.4692 9.32423 11.5229 9.54174 8.58724 9.44578C6.48617 9.37418 4.40724 9.14155 2.32716 8.84856C2.12334 8.81996 1.90246 8.78276 1.7623 8.63298C1.4983 8.35045 1.62797 7.78152 1.69672 7.44014C1.7596 7.12741 1.87996 6.71059 2.253 6.66609C2.83537 6.59796 3.51164 6.84297 4.08773 6.93006C4.78138 7.03557 5.4776 7.1201 6.17638 7.18357C9.1587 7.45449 12.1911 7.41227 15.1602 7.01597C15.7014 6.94345 16.2406 6.85924 16.7779 6.76323C17.2566 6.67769 17.7873 6.51708 18.0765 7.0113C18.2749 7.34802 18.3013 7.79856 18.2706 8.17901C18.2612 8.34479 18.1889 8.50065 18.068 8.61479Z" fill="white"/>
</svg>
