<svg width="24" height="34" viewBox="0 0 24 34" fill="none" xmlns="http://www.w3.org/2000/svg">
<path d="M0 6.36121C0 2.84801 2.83465 0 6.33139 0H17.1952C20.6919 0 23.5266 2.84801 23.5266 6.36121C23.5266 8.5858 22.39 10.5437 20.6685 11.6807C22.39 12.8177 23.5266 14.7755 23.5266 17.0001C23.5266 20.5134 20.6919 23.3614 17.1952 23.3614H17.0577C15.4185 23.3614 13.9247 22.7354 12.8003 21.7085V27.5697C12.8003 31.1297 9.8915 34 6.36549 34C2.8775 34 0 31.1607 0 27.6387C0 25.4143 1.13646 23.4565 2.85787 22.3195C1.13646 21.1825 0 19.2246 0 17.0001C0 14.7755 1.13656 12.8177 2.85809 11.6807C1.13656 10.5437 0 8.5858 0 6.36121ZM10.7263 12.7226H6.33139C3.98002 12.7226 2.0739 14.6377 2.0739 17.0001C2.0739 19.3534 3.96533 21.2629 6.30416 21.2776C6.31321 21.2776 6.32227 21.2776 6.33139 21.2776H10.7263V12.7226ZM12.8003 17.0001C12.8003 19.3625 14.7064 21.2777 17.0577 21.2777H17.1952C19.5466 21.2777 21.4527 19.3625 21.4527 17.0001C21.4527 14.6377 19.5466 12.7226 17.1952 12.7226H17.0577C14.7064 12.7226 12.8003 14.6377 12.8003 17.0001ZM6.33139 23.3614C6.32227 23.3614 6.31321 23.3613 6.30416 23.3613C3.96533 23.376 2.0739 25.2854 2.0739 27.6387C2.0739 29.9925 4.00549 31.9163 6.36549 31.9163C8.76353 31.9163 10.7263 29.9616 10.7263 27.5697V23.3614H6.33139ZM6.33139 2.08368C3.98002 2.08368 2.0739 3.9988 2.0739 6.36121C2.0739 8.72366 3.98002 10.6387 6.33139 10.6387H10.7263V2.08368H6.33139ZM12.8003 10.6387H17.1952C19.5466 10.6387 21.4527 8.72366 21.4527 6.36121C21.4527 3.9988 19.5466 2.08368 17.1952 2.08368H12.8003V10.6387Z" fill="white"/>
</svg>
