<svg width="50" height="62" viewBox="0 0 50 62" fill="none" xmlns="http://www.w3.org/2000/svg">
<path d="M48.4031 20.9299C48.0469 21.2062 41.7578 24.7487 41.7578 32.6258C41.7578 41.737 49.7605 44.9603 50 45.0401C49.9631 45.2365 48.7287 49.4544 45.7806 53.7522C43.1519 57.5342 40.4066 61.31 36.2302 61.31C32.0538 61.31 30.979 58.8849 26.1577 58.8849C21.4593 58.8849 19.7887 61.3898 15.9686 61.3898C12.1484 61.3898 9.48286 57.8903 6.41813 53.5925C2.8682 48.5458 0 40.7055 0 33.2643C0 21.329 7.76317 14.999 15.4035 14.999C19.4632 14.999 22.8473 17.6636 25.3961 17.6636C27.8221 17.6636 31.6055 14.8394 36.2241 14.8394C37.9744 14.8394 44.2636 14.999 48.4031 20.9299ZM34.0314 9.78652C35.9415 7.52101 37.2927 4.37753 37.2927 1.23406C37.2927 0.798148 37.2559 0.356097 37.176 0C34.0683 0.116652 30.371 2.06904 28.1415 4.65381C26.3911 6.64304 24.7574 9.78652 24.7574 12.973C24.7574 13.4519 24.8372 13.9307 24.8741 14.0842C25.0706 14.1211 25.39 14.164 25.7094 14.164C28.4977 14.164 32.0047 12.2976 34.0314 9.78652Z" fill="#333333"/>
</svg>
