<svg width="60" height="64" viewBox="0 0 60 64" fill="none" xmlns="http://www.w3.org/2000/svg">
<path d="M23.7893 0C17.3986 0 12.2244 5.17826 12.2244 11.5666C12.2244 17.9549 17.4027 23.1323 23.7893 23.1323C30.1752 23.1323 35.3543 17.954 35.3543 11.5666C35.3543 5.17826 30.1776 0 23.7893 0ZM23.7893 21.7197C18.1821 21.7197 13.6337 17.173 13.6337 11.5649C13.6337 5.95603 18.1788 1.40925 23.7893 1.40925C29.399 1.40925 33.9442 5.9552 33.9442 11.5649C33.9442 17.173 29.3999 21.7197 23.7893 21.7197Z" fill="white"/>
<path d="M27.4481 11.3699C26.8902 10.9872 25.8331 10.5781 24.28 10.1416V5.2411C25.2049 5.27581 25.8794 5.63122 26.3009 6.30898C26.5274 6.67762 26.6654 7.11651 26.7125 7.62649H28.473C28.4383 6.48834 28.0656 5.57585 27.3531 4.88238C26.6365 4.18974 25.6124 3.79714 24.28 3.70291V2.38376H23.3221V3.7211C21.9723 3.73597 20.9276 4.15007 20.1771 4.96917C19.4291 5.78744 19.0571 6.70655 19.0571 7.72567C19.0571 8.86629 19.4051 9.75895 20.0977 10.402C20.7904 11.045 21.8665 11.5063 23.3212 11.7798V17.2623C22.1864 17.168 21.4094 16.7432 20.9912 15.9844C20.7532 15.5621 20.6118 14.8917 20.5532 13.9726H18.7736C18.7736 15.1273 18.967 16.0431 19.3464 16.7192C20.0407 17.9739 21.3714 18.6649 23.3221 18.7922V20.7445H24.28V18.7922C25.4942 18.6575 26.4207 18.383 27.0663 17.9681C28.2242 17.2168 28.802 15.9497 28.802 14.1644C28.8045 12.932 28.3515 11.9989 27.4481 11.3699ZM23.3221 9.94988C22.5707 9.80358 21.9773 9.54075 21.5301 9.16632C21.0879 8.78942 20.8648 8.27118 20.8648 7.60582C20.8648 7.05535 21.0557 6.52884 21.4268 6.02714C21.8029 5.52295 22.4327 5.2568 23.3187 5.22209L23.3221 9.94988ZM26.6522 16.0572C26.2182 16.8432 25.4264 17.2623 24.2792 17.3135V12.022C25.1173 12.2493 25.7107 12.4907 26.067 12.7461C26.6852 13.1825 26.9935 13.8197 26.9935 14.657C26.9935 15.1901 26.8811 15.6555 26.6522 16.0572Z" fill="white"/>
<path d="M15.8328 29.042L16.4775 30.8604C21.3855 29.1247 26.8101 29.1057 31.747 30.8092L32.3768 28.985C27.0283 27.141 21.1516 27.1575 15.8328 29.042Z" fill="white"/>
<path d="M59.9188 40.3284L59.8675 39.4829L59.022 39.4258C58.2996 39.3779 57.416 39.4085 56.606 39.4391C56.1555 39.4573 55.6547 39.4804 55.2976 39.473C53.4271 35.9684 50.8426 33.3599 47.6017 31.7143C47.7315 29.9174 48.0365 28.2321 49.0093 27.4287L50.8806 25.8863L48.4613 25.7202C45.0047 25.4979 42.1738 27.6369 40.4885 29.3537C36.9245 26.2368 30.7312 24.3358 23.9817 24.3358C23.9669 24.3358 23.9495 24.3358 23.9355 24.3358C17.2752 24.3448 11.1894 26.1657 6.69554 29.4165L5.7971 28.8065C4.6821 28.0461 3.44808 27.9824 2.40912 28.6445C0.782495 29.6834 0.108041 32.106 0.394023 33.8517C0.550239 34.7964 0.970946 35.5543 1.59746 36.0494C-0.750731 40.354 -0.690394 47.3052 2.991 50.7519C3.52991 55.2805 4.39446 59.8636 6.82779 63.0169L7.11542 63.3896H16.2404L16.1007 62.3044C15.9585 61.1919 15.7982 59.9628 15.8189 58.6428C20.0375 59.4685 24.9628 59.7248 29.8989 59.3727C30.6428 60.615 31.409 61.8969 32.3397 63.0359L32.629 63.3905H40.5621L41.6539 63.2946L41.5027 62.1978C41.2729 60.5216 41.0373 58.7966 41.339 57.1509C43.7302 56.5715 52.47 54.1076 58.526 47.7995H58.5277C59.9832 46.2828 60.1394 43.8123 59.9188 40.3284ZM57.1383 46.4597C50.5128 53.3563 40.4497 55.3731 40.3521 55.3929L39.7529 55.5094L39.5992 56.0979C39.1189 57.9081 39.2363 59.6801 39.462 61.4597H33.553C32.8273 60.5083 32.1967 59.4537 31.5322 58.3445L30.9354 57.3534L30.3345 57.3989C24.9604 57.8419 19.5556 57.527 15.1254 56.5203L14.0567 56.2789L13.9517 57.3725C13.8087 58.8586 13.9096 60.248 14.0459 61.4622H8.07503C6.07316 58.5974 5.34498 54.349 4.86228 50.1626L4.81848 49.7857L4.52671 49.5385C1.16931 46.7043 1.29578 39.7325 3.75803 36.2205L4.56721 35.0675L3.20012 34.7303C2.71163 34.6096 2.40995 34.2063 2.30002 33.5392C2.18348 32.8549 2.31572 32.0622 2.59013 31.4076C2.52236 31.7085 2.52814 31.9969 2.61245 32.2722C2.7356 32.6813 3.14887 33.3847 4.50439 33.488L4.95816 33.526L5.27473 33.1946C9.47767 28.8048 16.2759 26.2781 23.9322 26.2707C23.9487 26.2707 23.9636 26.2707 23.9768 26.2707C30.7114 26.2707 36.784 28.2337 39.8289 31.401L40.5629 32.1614L41.2531 31.3663C42.273 30.1959 44.1319 28.418 46.4231 27.8312C45.8875 29.1189 45.7122 30.6869 45.6288 32.2523L45.5916 32.9061L46.1875 33.1797C49.5077 34.7071 52.0038 37.2066 53.8189 40.8268L54.0322 41.255L54.5016 41.3434C54.9653 41.4335 55.6323 41.4128 56.6696 41.374C57.1127 41.3583 57.5854 41.3393 58.0343 41.3376C58.1376 43.5048 58.0359 45.5249 57.1383 46.4597Z" fill="white"/>
<path d="M47.5304 40.5665C48.4324 40.5665 49.1636 39.8352 49.1636 38.9332C49.1636 38.0312 48.4324 37.3 47.5304 37.3C46.6284 37.3 45.8972 38.0312 45.8972 38.9332C45.8972 39.8352 46.6284 40.5665 47.5304 40.5665Z" fill="white"/>
<path d="M0 63.2776H48.9891" stroke="white" stroke-width="0.8"/>
</svg>
